<svg width="171" height="85" viewBox="0 0 171 85" fill="none" xmlns="http://www.w3.org/2000/svg">
<g filter="url(#filter0_d_381_11)">
<rect width="171" height="85" fill="url(#paint0_linear_381_11)" shape-rendering="crispEdges"/>
</g>
<rect x="5" y="5" width="166" height="75" fill="black"/>
<path d="M23.472 43.208C23.472 43.88 23.488 44.44 23.52 44.888C23.568 45.32 23.672 45.672 23.832 45.944C24.008 46.216 24.264 46.416 24.6 46.544C24.936 46.672 25.4 46.76 25.992 46.808V47.096C25.384 47.064 24.776 47.04 24.168 47.024C23.56 47.008 22.952 47 22.344 47C21.752 47 21.168 47.008 20.592 47.024C20.016 47.04 19.44 47.064 18.864 47.096V46.808C19.44 46.76 19.888 46.672 20.208 46.544C20.528 46.416 20.768 46.216 20.928 45.944C21.104 45.672 21.208 45.32 21.24 44.888C21.288 44.44 21.312 43.88 21.312 43.208V35.192C21.312 34.52 21.288 33.968 21.24 33.536C21.208 33.088 21.104 32.728 20.928 32.456C20.768 32.184 20.52 31.984 20.184 31.856C19.848 31.728 19.392 31.64 18.816 31.592V31.304C19.488 31.336 20.136 31.36 20.76 31.376C21.4 31.392 22.056 31.4 22.728 31.4C23.256 31.4 23.784 31.392 24.312 31.376C24.84 31.36 25.36 31.336 25.872 31.304V31.592C25.312 31.64 24.872 31.728 24.552 31.856C24.232 31.984 23.992 32.184 23.832 32.456C23.672 32.728 23.568 33.088 23.52 33.536C23.488 33.968 23.472 34.52 23.472 35.192V39.248L27.12 36.272C27.456 36 27.776 35.72 28.08 35.432C28.384 35.128 28.648 34.824 28.872 34.52C29.112 34.216 29.296 33.928 29.424 33.656C29.568 33.384 29.64 33.136 29.64 32.912C29.64 32.672 29.584 32.472 29.472 32.312C29.376 32.136 29.24 32 29.064 31.904C28.904 31.792 28.72 31.712 28.512 31.664C28.304 31.616 28.096 31.592 27.888 31.592V31.304C28.496 31.336 29.088 31.36 29.664 31.376C30.256 31.392 30.856 31.4 31.464 31.4C32.104 31.4 32.736 31.392 33.36 31.376C34 31.36 34.64 31.336 35.28 31.304V31.592C34.864 31.64 34.472 31.72 34.104 31.832C33.752 31.944 33.384 32.112 33 32.336C32.632 32.544 32.232 32.816 31.8 33.152C31.384 33.472 30.896 33.872 30.336 34.352L27.36 36.896L32.208 44.024C32.704 44.728 33.264 45.352 33.888 45.896C34.528 46.44 35.272 46.744 36.12 46.808V47.096C35.432 47.064 34.744 47.04 34.056 47.024C33.368 47.008 32.68 47 31.992 47C31.368 47 30.744 47.008 30.12 47.024C29.512 47.04 28.896 47.064 28.272 47.096V46.808C28.848 46.776 29.344 46.656 29.76 46.448C30.192 46.24 30.408 45.872 30.408 45.344C30.408 45.12 30.32 44.88 30.144 44.624C29.968 44.368 29.72 44.008 29.4 43.544L25.776 38.216L23.472 40.016V43.208ZM41.0211 40.064L39.4371 44.408C39.3891 44.536 39.3411 44.648 39.2931 44.744C39.2611 44.84 39.2451 44.944 39.2451 45.056C39.2451 45.344 39.3251 45.592 39.4851 45.8C39.6611 46.008 39.8691 46.184 40.1091 46.328C40.3491 46.456 40.5971 46.56 40.8531 46.64C41.1091 46.72 41.3251 46.776 41.5011 46.808V47.096C41.0211 47.064 40.5411 47.04 40.0611 47.024C39.5811 47.008 39.0931 47 38.5971 47C38.1171 47 37.6451 47.008 37.1811 47.024C36.7331 47.04 36.2531 47.064 35.7411 47.096V46.808C36.2371 46.696 36.6451 46.528 36.9651 46.304C37.3011 46.064 37.5811 45.784 37.8051 45.464C38.0291 45.144 38.2211 44.792 38.3811 44.408C38.5571 44.024 38.7251 43.624 38.8851 43.208L43.0371 33.008C43.0851 32.896 43.1251 32.792 43.1571 32.696C43.2051 32.6 43.2291 32.512 43.2291 32.432C43.2291 32.352 43.1971 32.232 43.1331 32.072C43.0851 31.912 43.0211 31.768 42.9411 31.64C43.3571 31.56 43.7171 31.456 44.0211 31.328C44.3251 31.2 44.6611 31.064 45.0291 30.92L50.0211 44.648C50.2451 45.272 50.5571 45.768 50.9571 46.136C51.3571 46.488 51.9491 46.712 52.7331 46.808V47.096C52.0931 47.064 51.4611 47.04 50.8371 47.024C50.2291 47.008 49.5891 47 48.9171 47C48.4851 47 48.1091 47 47.7891 47C47.4691 47 47.1811 47 46.9251 47C46.6691 47.016 46.4211 47.032 46.1811 47.048C45.9571 47.064 45.7091 47.08 45.4371 47.096V46.808C46.1091 46.728 46.6691 46.56 47.1171 46.304C47.5811 46.032 47.8131 45.672 47.8131 45.224C47.8131 45.096 47.7811 44.968 47.7171 44.84C47.6691 44.712 47.6291 44.592 47.5971 44.48L46.0371 40.064H41.0211ZM43.6131 33.248L41.2611 39.344H45.7731L43.6131 33.248ZM70.3995 47H66.0795C65.0715 45.896 64.1355 44.768 63.2715 43.616C62.4235 42.448 61.6635 41.216 60.9915 39.92C60.8315 39.92 60.6235 39.904 60.3675 39.872C60.1275 39.84 59.8715 39.808 59.5995 39.776C59.3435 39.728 59.0875 39.68 58.8315 39.632C58.5915 39.568 58.3915 39.512 58.2315 39.464V43.208C58.2315 43.88 58.2475 44.44 58.2795 44.888C58.3275 45.32 58.4315 45.672 58.5915 45.944C58.7675 46.216 59.0235 46.416 59.3595 46.544C59.6955 46.672 60.1595 46.76 60.7515 46.808V47.096C60.1435 47.064 59.5355 47.04 58.9275 47.024C58.3195 47.008 57.7115 47 57.1035 47C56.5115 47 55.9275 47.008 55.3515 47.024C54.7755 47.04 54.1995 47.064 53.6235 47.096V46.808C54.1995 46.76 54.6475 46.672 54.9675 46.544C55.2875 46.416 55.5275 46.216 55.6875 45.944C55.8635 45.672 55.9675 45.32 55.9995 44.888C56.0475 44.44 56.0715 43.88 56.0715 43.208V35.192C56.0715 34.52 56.0475 33.968 55.9995 33.536C55.9675 33.088 55.8635 32.728 55.6875 32.456C55.5275 32.184 55.2875 31.984 54.9675 31.856C54.6475 31.728 54.1995 31.64 53.6235 31.592V31.304C54.1355 31.336 54.6475 31.36 55.1595 31.376C55.6715 31.392 56.1835 31.4 56.6955 31.4C56.9195 31.4 57.1995 31.392 57.5355 31.376C57.8715 31.344 58.2235 31.312 58.5915 31.28C58.9755 31.248 59.3595 31.224 59.7435 31.208C60.1275 31.176 60.4715 31.16 60.7755 31.16C61.4635 31.16 62.1675 31.248 62.8875 31.424C63.6075 31.6 64.2555 31.88 64.8315 32.264C65.4075 32.648 65.8795 33.136 66.2475 33.728C66.6155 34.32 66.7995 35.024 66.7995 35.84C66.7995 36.4 66.6955 36.896 66.4875 37.328C66.2955 37.76 66.0315 38.136 65.6955 38.456C65.3595 38.776 64.9595 39.04 64.4955 39.248C64.0475 39.456 63.5755 39.608 63.0795 39.704C63.3035 40.088 63.5675 40.52 63.8715 41C64.1755 41.48 64.5115 41.968 64.8795 42.464C65.2635 42.96 65.6635 43.456 66.0795 43.952C66.5115 44.432 66.9595 44.872 67.4235 45.272C67.9035 45.656 68.3915 45.984 68.8875 46.256C69.3835 46.512 69.8875 46.664 70.3995 46.712V47ZM58.2315 38.648C58.9515 38.92 59.6955 39.056 60.4635 39.056C61.7115 39.056 62.6795 38.768 63.3675 38.192C64.0555 37.616 64.3995 36.68 64.3995 35.384C64.3995 34.856 64.2955 34.384 64.0875 33.968C63.8955 33.536 63.6235 33.168 63.2715 32.864C62.9195 32.544 62.5115 32.304 62.0475 32.144C61.5995 31.968 61.1275 31.88 60.6315 31.88C60.2315 31.88 59.8395 31.896 59.4555 31.928C59.0715 31.96 58.6955 32.032 58.3275 32.144C58.2955 32.912 58.2715 33.688 58.2555 34.472C58.2395 35.256 58.2315 36.104 58.2315 37.016V38.648ZM75.2398 40.064L73.6558 44.408C73.6078 44.536 73.5598 44.648 73.5118 44.744C73.4798 44.84 73.4638 44.944 73.4638 45.056C73.4638 45.344 73.5438 45.592 73.7038 45.8C73.8798 46.008 74.0878 46.184 74.3278 46.328C74.5678 46.456 74.8158 46.56 75.0718 46.64C75.3278 46.72 75.5438 46.776 75.7198 46.808V47.096C75.2398 47.064 74.7598 47.04 74.2798 47.024C73.7998 47.008 73.3118 47 72.8158 47C72.3358 47 71.8638 47.008 71.3998 47.024C70.9518 47.04 70.4718 47.064 69.9598 47.096V46.808C70.4558 46.696 70.8638 46.528 71.1838 46.304C71.5198 46.064 71.7998 45.784 72.0238 45.464C72.2478 45.144 72.4398 44.792 72.5998 44.408C72.7758 44.024 72.9438 43.624 73.1038 43.208L77.2558 33.008C77.3038 32.896 77.3438 32.792 77.3758 32.696C77.4238 32.6 77.4478 32.512 77.4478 32.432C77.4478 32.352 77.4158 32.232 77.3518 32.072C77.3038 31.912 77.2398 31.768 77.1598 31.64C77.5758 31.56 77.9358 31.456 78.2398 31.328C78.5438 31.2 78.8798 31.064 79.2478 30.92L84.2398 44.648C84.4638 45.272 84.7758 45.768 85.1758 46.136C85.5758 46.488 86.1678 46.712 86.9518 46.808V47.096C86.3118 47.064 85.6798 47.04 85.0558 47.024C84.4478 47.008 83.8078 47 83.1358 47C82.7038 47 82.3278 47 82.0078 47C81.6878 47 81.3998 47 81.1438 47C80.8878 47.016 80.6398 47.032 80.3998 47.048C80.1758 47.064 79.9278 47.08 79.6558 47.096V46.808C80.3278 46.728 80.8878 46.56 81.3358 46.304C81.7998 46.032 82.0318 45.672 82.0318 45.224C82.0318 45.096 81.9998 44.968 81.9358 44.84C81.8878 44.712 81.8478 44.592 81.8158 44.48L80.2558 40.064H75.2398ZM77.8318 33.248L75.4798 39.344H79.9918L77.8318 33.248ZM84.3911 31.304C84.9511 31.336 85.5031 31.36 86.0471 31.376C86.5911 31.392 87.1431 31.4 87.7031 31.4C88.3751 31.4 89.0311 31.392 89.6711 31.376C90.3111 31.36 90.9511 31.336 91.5911 31.304V31.592C91.3671 31.624 91.1271 31.664 90.8711 31.712C90.6151 31.76 90.3751 31.84 90.1511 31.952C89.9271 32.048 89.7431 32.184 89.5991 32.36C89.4551 32.536 89.3831 32.776 89.3831 33.08C89.3831 33.368 89.6151 34.088 90.0791 35.24L93.8471 44.36L96.9671 36.992C97.7671 35.056 98.1671 33.736 98.1671 33.032C98.1671 32.776 98.1111 32.56 97.9991 32.384C97.8871 32.208 97.7351 32.072 97.5431 31.976C97.3511 31.864 97.1351 31.784 96.8951 31.736C96.6711 31.672 96.4391 31.624 96.1991 31.592V31.304C96.7431 31.336 97.2791 31.36 97.8071 31.376C98.3511 31.392 98.8871 31.4 99.4151 31.4C99.8631 31.4 100.303 31.392 100.735 31.376C101.167 31.36 101.599 31.336 102.031 31.304V31.592C101.471 31.656 100.999 31.84 100.615 32.144C100.231 32.448 99.9031 32.816 99.6311 33.248C99.3591 33.68 99.1191 34.144 98.9111 34.64C98.7191 35.136 98.5271 35.6 98.3351 36.032L93.3431 47.24H92.8151L87.2231 34.088C86.9351 33.4 86.5751 32.832 86.1431 32.384C85.7271 31.92 85.1431 31.656 84.3911 31.592V31.304ZM107.122 46.064C107.266 46.096 107.442 46.128 107.65 46.16C107.858 46.192 108.082 46.224 108.322 46.256C108.562 46.288 108.81 46.32 109.066 46.352C109.322 46.368 109.562 46.376 109.786 46.376C110.746 46.376 111.602 46.296 112.354 46.136C113.122 45.976 113.818 45.72 114.442 45.368C115.082 45.016 115.682 44.568 116.242 44.024C116.802 43.48 117.37 42.824 117.946 42.056L118.21 42.272L116.026 47.096C115.754 47.064 115.474 47.04 115.186 47.024C114.898 47.008 114.618 47 114.346 47H105.322C104.858 47 104.394 47.008 103.93 47.024C103.466 47.04 103.002 47.064 102.538 47.096V46.808C103.114 46.76 103.562 46.672 103.882 46.544C104.202 46.416 104.442 46.216 104.602 45.944C104.762 45.672 104.858 45.32 104.89 44.888C104.938 44.44 104.962 43.88 104.962 43.208V35.192C104.962 34.52 104.938 33.968 104.89 33.536C104.858 33.088 104.762 32.728 104.602 32.456C104.442 32.184 104.194 31.984 103.858 31.856C103.522 31.728 103.066 31.64 102.49 31.592V31.304C103.034 31.32 103.546 31.336 104.026 31.352C104.522 31.368 105.026 31.384 105.538 31.4C106.066 31.4 106.618 31.4 107.194 31.4C107.786 31.4 108.45 31.4 109.186 31.4C110.306 31.4 111.426 31.392 112.546 31.376C113.666 31.36 114.802 31.336 115.954 31.304C115.938 31.48 115.922 31.656 115.906 31.832C115.906 32.008 115.906 32.176 115.906 32.336V33.296C115.906 33.648 115.922 34.008 115.954 34.376C115.986 34.728 116.018 35.12 116.05 35.552L115.738 35.648C115.53 34.88 115.25 34.256 114.898 33.776C114.562 33.28 114.162 32.896 113.698 32.624C113.25 32.352 112.754 32.168 112.21 32.072C111.666 31.976 111.09 31.928 110.482 31.928C109.362 31.928 108.242 31.976 107.122 32.072V38.072C107.442 38.072 107.746 38.064 108.034 38.048C108.338 38.032 108.65 38.024 108.97 38.024C110.074 38.024 110.946 37.808 111.586 37.376C112.242 36.928 112.642 36.12 112.786 34.952H113.074C113.074 35.528 113.066 36.104 113.05 36.68C113.034 37.256 113.026 37.824 113.026 38.384C113.026 38.96 113.034 39.536 113.05 40.112C113.066 40.688 113.074 41.264 113.074 41.84H112.786C112.642 41.168 112.466 40.624 112.258 40.208C112.05 39.776 111.786 39.448 111.466 39.224C111.162 39 110.778 38.848 110.314 38.768C109.85 38.688 109.298 38.648 108.658 38.648H107.122V46.064ZM135.743 47H131.423C130.415 45.896 129.479 44.768 128.615 43.616C127.767 42.448 127.007 41.216 126.335 39.92C126.175 39.92 125.967 39.904 125.711 39.872C125.471 39.84 125.215 39.808 124.943 39.776C124.687 39.728 124.431 39.68 124.175 39.632C123.935 39.568 123.735 39.512 123.575 39.464V43.208C123.575 43.88 123.591 44.44 123.623 44.888C123.671 45.32 123.775 45.672 123.935 45.944C124.111 46.216 124.367 46.416 124.703 46.544C125.039 46.672 125.503 46.76 126.095 46.808V47.096C125.487 47.064 124.879 47.04 124.271 47.024C123.663 47.008 123.055 47 122.447 47C121.855 47 121.271 47.008 120.695 47.024C120.119 47.04 119.543 47.064 118.967 47.096V46.808C119.543 46.76 119.991 46.672 120.311 46.544C120.631 46.416 120.871 46.216 121.031 45.944C121.207 45.672 121.311 45.32 121.343 44.888C121.391 44.44 121.415 43.88 121.415 43.208V35.192C121.415 34.52 121.391 33.968 121.343 33.536C121.311 33.088 121.207 32.728 121.031 32.456C120.871 32.184 120.631 31.984 120.311 31.856C119.991 31.728 119.543 31.64 118.967 31.592V31.304C119.479 31.336 119.991 31.36 120.503 31.376C121.015 31.392 121.527 31.4 122.039 31.4C122.263 31.4 122.543 31.392 122.879 31.376C123.215 31.344 123.567 31.312 123.935 31.28C124.319 31.248 124.703 31.224 125.087 31.208C125.471 31.176 125.815 31.16 126.119 31.16C126.807 31.16 127.511 31.248 128.231 31.424C128.951 31.6 129.599 31.88 130.175 32.264C130.751 32.648 131.223 33.136 131.591 33.728C131.959 34.32 132.143 35.024 132.143 35.84C132.143 36.4 132.039 36.896 131.831 37.328C131.639 37.76 131.375 38.136 131.039 38.456C130.703 38.776 130.303 39.04 129.839 39.248C129.391 39.456 128.919 39.608 128.423 39.704C128.647 40.088 128.911 40.52 129.215 41C129.519 41.48 129.855 41.968 130.223 42.464C130.607 42.96 131.007 43.456 131.423 43.952C131.855 44.432 132.303 44.872 132.767 45.272C133.247 45.656 133.735 45.984 134.231 46.256C134.727 46.512 135.231 46.664 135.743 46.712V47ZM123.575 38.648C124.295 38.92 125.039 39.056 125.807 39.056C127.055 39.056 128.023 38.768 128.711 38.192C129.399 37.616 129.743 36.68 129.743 35.384C129.743 34.856 129.639 34.384 129.431 33.968C129.239 33.536 128.967 33.168 128.615 32.864C128.263 32.544 127.855 32.304 127.391 32.144C126.943 31.968 126.471 31.88 125.975 31.88C125.575 31.88 125.183 31.896 124.799 31.928C124.415 31.96 124.039 32.032 123.671 32.144C123.639 32.912 123.615 33.688 123.599 34.472C123.583 35.256 123.575 36.104 123.575 37.016V38.648ZM135.736 31.304C136.296 31.336 136.824 31.36 137.32 31.376C137.832 31.392 138.424 31.4 139.096 31.4C139.448 31.4 139.792 31.392 140.128 31.376C140.464 31.36 140.808 31.336 141.16 31.304C141.368 31.592 141.712 32.032 142.192 32.624C142.672 33.2 143.216 33.864 143.824 34.616C144.448 35.368 145.112 36.168 145.816 37.016C146.52 37.864 147.2 38.696 147.856 39.512C148.512 40.312 149.112 41.064 149.656 41.768C150.216 42.456 150.656 43.024 150.976 43.472H151.024C151.024 42.992 151.024 42.52 151.024 42.056C151.04 41.576 151.048 41.096 151.048 40.616V37.832C151.048 36.808 151.008 35.92 150.928 35.168C150.864 34.4 150.72 33.76 150.496 33.248C150.288 32.736 149.984 32.344 149.584 32.072C149.2 31.8 148.688 31.64 148.048 31.592V31.304C148.608 31.336 149.168 31.36 149.728 31.376C150.304 31.392 150.872 31.4 151.432 31.4C151.944 31.4 152.464 31.392 152.992 31.376C153.52 31.36 154.04 31.336 154.552 31.304V31.592C153.544 31.72 152.848 32.016 152.464 32.48C152.096 32.928 151.912 33.624 151.912 34.568V47.288H151.024C150.144 45.912 149.208 44.576 148.216 43.28C147.24 41.984 146.264 40.752 145.288 39.584C144.328 38.416 143.392 37.336 142.48 36.344C141.584 35.336 140.776 34.44 140.056 33.656C140.04 34.072 140.024 34.48 140.008 34.88C140.008 35.28 140.008 35.688 140.008 36.104V40.304C140.008 41.728 140.032 42.856 140.08 43.688C140.144 44.504 140.28 45.136 140.488 45.584C140.712 46.016 141.032 46.312 141.448 46.472C141.88 46.616 142.472 46.728 143.224 46.808V47.096C142.408 47.064 141.616 47.04 140.848 47.024C140.08 47.008 139.288 47 138.472 47C138.008 47 137.552 47.008 137.104 47.024C136.656 47.04 136.2 47.064 135.736 47.096V46.808C136.28 46.728 136.752 46.656 137.152 46.592C137.568 46.512 137.904 46.392 138.16 46.232C138.432 46.056 138.632 45.816 138.76 45.512C138.904 45.192 138.984 44.752 139 44.192L139.288 33.176C138.776 32.76 138.216 32.432 137.608 32.192C137 31.952 136.376 31.752 135.736 31.592V31.304Z" fill="white"/>
<path d="M20.824 55.932C20.912 56.172 21.092 56.384 21.364 56.568C21.644 56.744 21.96 56.832 22.312 56.832C22.808 56.832 23.176 56.644 23.416 56.268C23.656 55.892 23.776 55.416 23.776 54.84C23.776 54.6 23.744 54.36 23.68 54.12C23.624 53.88 23.536 53.664 23.416 53.472C23.296 53.28 23.144 53.124 22.96 53.004C22.776 52.884 22.56 52.824 22.312 52.824C21.952 52.824 21.636 52.892 21.364 53.028C21.092 53.164 20.912 53.34 20.824 53.556V55.932ZM20.824 58.812C20.824 59.004 20.836 59.16 20.86 59.28C20.884 59.4 20.944 59.496 21.04 59.568C21.144 59.64 21.292 59.692 21.484 59.724C21.684 59.756 21.956 59.776 22.3 59.784V59.928C22.004 59.912 21.708 59.9 21.412 59.892C21.116 59.884 20.82 59.88 20.524 59.88C20.252 59.88 19.98 59.884 19.708 59.892C19.444 59.9 19.176 59.912 18.904 59.928V59.784C19.072 59.768 19.216 59.744 19.336 59.712C19.456 59.688 19.556 59.644 19.636 59.58C19.724 59.524 19.788 59.44 19.828 59.328C19.868 59.224 19.888 59.08 19.888 58.896V53.664C19.888 53.328 19.82 53.104 19.684 52.992C19.548 52.88 19.316 52.808 18.988 52.776V52.644L20.824 52.464V52.968C21.112 52.76 21.38 52.612 21.628 52.524C21.884 52.436 22.188 52.392 22.54 52.392C22.892 52.392 23.208 52.452 23.488 52.572C23.776 52.692 24.016 52.86 24.208 53.076C24.408 53.292 24.56 53.548 24.664 53.844C24.776 54.14 24.832 54.464 24.832 54.816C24.832 55.184 24.76 55.516 24.616 55.812C24.48 56.1 24.292 56.348 24.052 56.556C23.82 56.756 23.544 56.912 23.224 57.024C22.912 57.136 22.584 57.192 22.24 57.192C21.992 57.192 21.748 57.16 21.508 57.096C21.268 57.04 21.04 56.944 20.824 56.808V58.812ZM28.9133 54.48C28.9133 54.896 28.9653 55.24 29.0693 55.512C29.1813 55.784 29.3173 56 29.4773 56.16C29.6453 56.32 29.8213 56.432 30.0053 56.496C30.1973 56.56 30.3733 56.592 30.5333 56.592C30.8693 56.592 31.1733 56.54 31.4453 56.436C31.7173 56.324 31.9693 56.152 32.2013 55.92L32.4053 56.112C32.0773 56.464 31.7413 56.732 31.3973 56.916C31.0533 57.1 30.6413 57.192 30.1613 57.192C29.8173 57.192 29.5093 57.124 29.2373 56.988C28.9653 56.852 28.7333 56.672 28.5413 56.448C28.3493 56.224 28.2013 55.968 28.0973 55.68C28.0013 55.392 27.9533 55.096 27.9533 54.792C27.9533 54.488 28.0013 54.192 28.0973 53.904C28.2013 53.616 28.3493 53.36 28.5413 53.136C28.7333 52.912 28.9653 52.732 29.2373 52.596C29.5093 52.46 29.8173 52.392 30.1613 52.392C30.7933 52.392 31.3013 52.564 31.6853 52.908C32.0693 53.252 32.3053 53.776 32.3933 54.48H28.9133ZM31.2533 54.12C31.2293 53.904 31.1973 53.712 31.1573 53.544C31.1173 53.368 31.0533 53.224 30.9653 53.112C30.8773 52.992 30.7613 52.904 30.6173 52.848C30.4733 52.784 30.2893 52.752 30.0653 52.752C29.8973 52.752 29.7413 52.796 29.5973 52.884C29.4613 52.964 29.3413 53.072 29.2373 53.208C29.1413 53.336 29.0653 53.484 29.0093 53.652C28.9613 53.812 28.9373 53.968 28.9373 54.12H31.2533ZM35.3253 56.904C35.5973 56.856 35.8053 56.792 35.9493 56.712C36.0933 56.624 36.1653 56.448 36.1653 56.184V53.4C36.1653 53.16 36.0813 53.012 35.9133 52.956C35.7533 52.9 35.5653 52.872 35.3493 52.872V52.728L37.1013 52.464V53.148C37.1973 53.084 37.3053 53 37.4253 52.896C37.5533 52.792 37.6853 52.692 37.8213 52.596C37.9653 52.492 38.1093 52.404 38.2533 52.332C38.3973 52.26 38.5373 52.224 38.6733 52.224C38.9853 52.224 39.2173 52.312 39.3693 52.488C39.5293 52.656 39.6173 52.892 39.6333 53.196L38.6733 53.7C38.6893 53.644 38.7053 53.588 38.7213 53.532C38.7373 53.468 38.7453 53.388 38.7453 53.292C38.7453 53.18 38.7053 53.076 38.6253 52.98C38.5453 52.876 38.4373 52.824 38.3013 52.824C38.1893 52.824 38.0773 52.852 37.9653 52.908C37.8533 52.964 37.7453 53.036 37.6413 53.124C37.5373 53.204 37.4373 53.292 37.3413 53.388C37.2533 53.484 37.1733 53.568 37.1013 53.64V56.184C37.1013 56.448 37.1773 56.624 37.3293 56.712C37.4813 56.792 37.7093 56.856 38.0133 56.904V57.048C37.7413 57.032 37.4693 57.02 37.1973 57.012C36.9333 57.004 36.6653 57 36.3933 57C36.2093 57 36.0293 57.004 35.8533 57.012C35.6853 57.02 35.5093 57.032 35.3253 57.048V56.904ZM43.9974 56.184C43.9974 56.448 44.0694 56.624 44.2134 56.712C44.3574 56.792 44.5614 56.856 44.8254 56.904V57.048C44.5934 57.032 44.3454 57.02 44.0814 57.012C43.8254 57.004 43.5614 57 43.2894 57C43.1054 57 42.9254 57.004 42.7494 57.012C42.5734 57.02 42.3854 57.032 42.1854 57.048V56.904C42.4734 56.856 42.6894 56.792 42.8334 56.712C42.9854 56.624 43.0614 56.448 43.0614 56.184V53.736C43.0614 53.544 43.0454 53.392 43.0134 53.28C42.9894 53.168 42.9454 53.084 42.8814 53.028C42.8174 52.964 42.7334 52.92 42.6294 52.896C42.5254 52.872 42.3974 52.856 42.2454 52.848V52.704L43.9974 52.464V53.064C44.2534 52.88 44.5054 52.724 44.7534 52.596C45.0094 52.46 45.3054 52.392 45.6414 52.392C45.9214 52.392 46.1654 52.448 46.3734 52.56C46.5894 52.672 46.7854 52.836 46.9614 53.052C47.0654 52.98 47.1814 52.908 47.3094 52.836C47.4374 52.756 47.5694 52.684 47.7054 52.62C47.8414 52.548 47.9814 52.492 48.1254 52.452C48.2694 52.412 48.4094 52.392 48.5454 52.392C49.0494 52.392 49.4454 52.532 49.7334 52.812C50.0214 53.084 50.1654 53.496 50.1654 54.048V56.184C50.1654 56.448 50.2374 56.624 50.3814 56.712C50.5334 56.792 50.7534 56.856 51.0414 56.904V57.048C50.7854 57.032 50.5254 57.02 50.2614 57.012C49.9974 57.004 49.7294 57 49.4574 57C49.2734 57 49.0974 57.004 48.9294 57.012C48.7614 57.02 48.6054 57.032 48.4614 57.048V56.904C48.6934 56.856 48.8774 56.792 49.0134 56.712C49.1574 56.624 49.2294 56.448 49.2294 56.184V54.168C49.2294 53.776 49.1294 53.484 48.9294 53.292C48.7374 53.092 48.5134 52.992 48.2574 52.992C47.7694 52.992 47.3774 53.12 47.0814 53.376V56.184C47.0814 56.448 47.1534 56.624 47.2974 56.712C47.4414 56.792 47.6454 56.856 47.9094 56.904V57.048C47.6774 57.032 47.4294 57.02 47.1654 57.012C46.9094 57.004 46.6454 57 46.3734 57C46.1894 57 46.0134 57.004 45.8454 57.012C45.6774 57.02 45.5214 57.032 45.3774 57.048V56.904C45.6094 56.856 45.7934 56.792 45.9294 56.712C46.0734 56.624 46.1454 56.448 46.1454 56.184V54.168C46.1454 53.776 46.0854 53.472 45.9654 53.256C45.8454 53.032 45.5814 52.92 45.1734 52.92C45.0534 52.92 44.9454 52.932 44.8494 52.956C44.7614 52.972 44.6734 53.004 44.5854 53.052C44.4974 53.1 44.4054 53.164 44.3094 53.244C44.2214 53.316 44.1174 53.408 43.9974 53.52V56.184ZM54.3093 53.496C54.3733 53.248 54.4613 53.052 54.5733 52.908C54.6933 52.756 54.8293 52.644 54.9813 52.572C55.1333 52.492 55.3053 52.444 55.4973 52.428C55.6893 52.404 55.8933 52.392 56.1093 52.392C56.3173 52.392 56.5213 52.416 56.7213 52.464C56.9293 52.504 57.1133 52.576 57.2733 52.68C57.4413 52.784 57.5733 52.924 57.6693 53.1C57.7733 53.268 57.8253 53.476 57.8253 53.724V55.944C57.8253 56.096 57.8653 56.232 57.9453 56.352C58.0253 56.464 58.1493 56.52 58.3173 56.52C58.4773 56.52 58.6173 56.476 58.7373 56.388C58.8653 56.292 58.9853 56.2 59.0973 56.112L59.2173 56.244C59.1373 56.324 59.0413 56.42 58.9293 56.532C58.8253 56.636 58.7133 56.74 58.5933 56.844C58.4733 56.94 58.3493 57.02 58.2213 57.084C58.1013 57.156 57.9813 57.192 57.8613 57.192C57.7813 57.192 57.6973 57.164 57.6093 57.108C57.5213 57.06 57.4333 57 57.3453 56.928C57.2653 56.856 57.1893 56.78 57.1173 56.7C57.0453 56.62 56.9813 56.552 56.9253 56.496C56.6693 56.672 56.3813 56.832 56.0613 56.976C55.7413 57.12 55.4293 57.192 55.1253 57.192C54.9573 57.192 54.7933 57.164 54.6333 57.108C54.4813 57.052 54.3453 56.972 54.2253 56.868C54.1053 56.764 54.0093 56.64 53.9373 56.496C53.8653 56.352 53.8293 56.188 53.8293 56.004C53.8293 55.676 53.9213 55.416 54.1053 55.224C54.2893 55.024 54.5253 54.872 54.8133 54.768C55.1093 54.664 55.4413 54.596 55.8093 54.564C56.1853 54.524 56.5613 54.5 56.9373 54.492V53.58C56.9373 53.284 56.8453 53.056 56.6613 52.896C56.4773 52.736 56.2453 52.656 55.9653 52.656C55.7573 52.656 55.5933 52.76 55.4733 52.968C55.3533 53.176 55.2933 53.412 55.2933 53.676L54.3093 53.496ZM56.9133 54.96C56.6493 54.888 56.3813 54.852 56.1093 54.852C55.9573 54.852 55.8053 54.872 55.6533 54.912C55.5013 54.944 55.3653 55 55.2453 55.08C55.1253 55.16 55.0253 55.264 54.9453 55.392C54.8733 55.512 54.8373 55.66 54.8373 55.836C54.8373 56.108 54.9293 56.304 55.1133 56.424C55.3053 56.536 55.5173 56.592 55.7493 56.592C56.0053 56.592 56.2373 56.54 56.4453 56.436C56.6613 56.332 56.8173 56.244 56.9133 56.172V54.96ZM61.6039 52.728L63.3559 52.464V53.1C63.5719 52.932 63.8199 52.772 64.0999 52.62C64.3799 52.468 64.6479 52.392 64.9039 52.392C65.1279 52.392 65.3399 52.42 65.5399 52.476C65.7479 52.532 65.9319 52.624 66.0919 52.752C66.2519 52.88 66.3799 53.052 66.4759 53.268C66.5719 53.484 66.6199 53.752 66.6199 54.072V56.184C66.6199 56.448 66.6919 56.624 66.8359 56.712C66.9799 56.792 67.1879 56.856 67.4599 56.904V57.048C67.2279 57.032 66.9799 57.02 66.7159 57.012C66.4519 57.004 66.1839 57 65.9119 57C65.7279 57 65.5479 57.004 65.3719 57.012C65.2039 57.02 65.0399 57.032 64.8799 57.048V56.904C65.1359 56.856 65.3319 56.792 65.4679 56.712C65.6119 56.624 65.6839 56.448 65.6839 56.184V54.252C65.6839 53.844 65.5959 53.528 65.4199 53.304C65.2519 53.08 64.9759 52.968 64.5919 52.968C64.4559 52.968 64.3159 52.988 64.1719 53.028C64.0279 53.068 63.8959 53.124 63.7759 53.196C63.6559 53.26 63.5559 53.332 63.4759 53.412C63.3959 53.492 63.3559 53.568 63.3559 53.64V56.184C63.3559 56.448 63.4319 56.624 63.5839 56.712C63.7359 56.792 63.9639 56.856 64.2679 56.904V57.048C63.9959 57.032 63.7239 57.02 63.4519 57.012C63.1879 57.004 62.9199 57 62.6479 57C62.4639 57 62.2839 57.004 62.1079 57.012C61.9399 57.02 61.7639 57.032 61.5799 57.048V56.904C61.8519 56.856 62.0599 56.792 62.2039 56.712C62.3479 56.624 62.4199 56.448 62.4199 56.184V53.4C62.4199 53.16 62.3359 53.012 62.1679 52.956C62.0079 52.9 61.8199 52.872 61.6039 52.872V52.728ZM71.3492 54.48C71.3492 54.896 71.4012 55.24 71.5052 55.512C71.6172 55.784 71.7532 56 71.9132 56.16C72.0812 56.32 72.2572 56.432 72.4412 56.496C72.6332 56.56 72.8092 56.592 72.9692 56.592C73.3052 56.592 73.6092 56.54 73.8813 56.436C74.1532 56.324 74.4052 56.152 74.6372 55.92L74.8412 56.112C74.5132 56.464 74.1772 56.732 73.8332 56.916C73.4892 57.1 73.0772 57.192 72.5972 57.192C72.2532 57.192 71.9452 57.124 71.6732 56.988C71.4012 56.852 71.1692 56.672 70.9772 56.448C70.7852 56.224 70.6372 55.968 70.5332 55.68C70.4372 55.392 70.3892 55.096 70.3892 54.792C70.3892 54.488 70.4372 54.192 70.5332 53.904C70.6372 53.616 70.7852 53.36 70.9772 53.136C71.1692 52.912 71.4012 52.732 71.6732 52.596C71.9452 52.46 72.2532 52.392 72.5972 52.392C73.2292 52.392 73.7372 52.564 74.1212 52.908C74.5052 53.252 74.7412 53.776 74.8292 54.48H71.3492ZM73.6892 54.12C73.6652 53.904 73.6332 53.712 73.5932 53.544C73.5532 53.368 73.4892 53.224 73.4012 53.112C73.3132 52.992 73.1972 52.904 73.0532 52.848C72.9092 52.784 72.7252 52.752 72.5012 52.752C72.3332 52.752 72.1772 52.796 72.0332 52.884C71.8972 52.964 71.7772 53.072 71.6732 53.208C71.5772 53.336 71.5012 53.484 71.4452 53.652C71.3972 53.812 71.3732 53.968 71.3732 54.12H73.6892ZM77.8213 52.728L79.5733 52.464V53.1C79.7893 52.932 80.0373 52.772 80.3173 52.62C80.5973 52.468 80.8653 52.392 81.1213 52.392C81.3453 52.392 81.5573 52.42 81.7573 52.476C81.9653 52.532 82.1493 52.624 82.3093 52.752C82.4693 52.88 82.5973 53.052 82.6933 53.268C82.7893 53.484 82.8373 53.752 82.8373 54.072V56.184C82.8373 56.448 82.9093 56.624 83.0533 56.712C83.1973 56.792 83.4053 56.856 83.6773 56.904V57.048C83.4453 57.032 83.1973 57.02 82.9333 57.012C82.6693 57.004 82.4013 57 82.1293 57C81.9453 57 81.7653 57.004 81.5893 57.012C81.4213 57.02 81.2573 57.032 81.0973 57.048V56.904C81.3533 56.856 81.5493 56.792 81.6853 56.712C81.8293 56.624 81.9013 56.448 81.9013 56.184V54.252C81.9013 53.844 81.8133 53.528 81.6373 53.304C81.4693 53.08 81.1933 52.968 80.8093 52.968C80.6733 52.968 80.5333 52.988 80.3893 53.028C80.2453 53.068 80.1133 53.124 79.9933 53.196C79.8733 53.26 79.7733 53.332 79.6933 53.412C79.6133 53.492 79.5733 53.568 79.5733 53.64V56.184C79.5733 56.448 79.6493 56.624 79.8013 56.712C79.9533 56.792 80.1813 56.856 80.4853 56.904V57.048C80.2133 57.032 79.9413 57.02 79.6693 57.012C79.4053 57.004 79.1373 57 78.8653 57C78.6813 57 78.5013 57.004 78.3253 57.012C78.1573 57.02 77.9813 57.032 77.7973 57.048V56.904C78.0693 56.856 78.2773 56.792 78.4213 56.712C78.5653 56.624 78.6373 56.448 78.6373 56.184V53.4C78.6373 53.16 78.5533 53.012 78.3853 52.956C78.2253 52.9 78.0373 52.872 77.8213 52.872V52.728ZM86.2586 52.956V52.764C86.5146 52.756 86.7346 52.692 86.9186 52.572C87.1026 52.452 87.2626 52.3 87.3986 52.116C87.5346 51.932 87.6466 51.728 87.7346 51.504C87.8306 51.28 87.9146 51.064 87.9866 50.856H88.1546V52.596H89.7986V52.956H88.1546V55.752C88.1546 55.856 88.1586 55.96 88.1666 56.064C88.1826 56.16 88.2066 56.248 88.2386 56.328C88.2786 56.408 88.3306 56.472 88.3946 56.52C88.4666 56.568 88.5626 56.592 88.6826 56.592C88.9226 56.592 89.1226 56.54 89.2826 56.436C89.4426 56.332 89.6026 56.2 89.7626 56.04L89.8706 56.16C89.7346 56.28 89.6026 56.404 89.4746 56.532C89.3466 56.652 89.2106 56.764 89.0666 56.868C88.9306 56.964 88.7786 57.04 88.6106 57.096C88.4506 57.16 88.2746 57.192 88.0826 57.192C87.7466 57.192 87.5186 57.092 87.3986 56.892C87.2786 56.684 87.2186 56.44 87.2186 56.16V52.956H86.2586ZM99.4397 56.184C99.4397 56.448 99.5117 56.624 99.6557 56.712C99.7997 56.792 100.004 56.856 100.268 56.904V57.048C100.036 57.032 99.7877 57.02 99.5237 57.012C99.2677 57.004 99.0037 57 98.7317 57C98.5477 57 98.3677 57.004 98.1917 57.012C98.0157 57.02 97.8277 57.032 97.6277 57.048V56.904C97.9157 56.856 98.1317 56.792 98.2757 56.712C98.4277 56.624 98.5037 56.448 98.5037 56.184V53.736C98.5037 53.544 98.4877 53.392 98.4557 53.28C98.4317 53.168 98.3877 53.084 98.3237 53.028C98.2597 52.964 98.1757 52.92 98.0717 52.896C97.9677 52.872 97.8397 52.856 97.6877 52.848V52.704L99.4397 52.464V53.064C99.6957 52.88 99.9477 52.724 100.196 52.596C100.452 52.46 100.748 52.392 101.084 52.392C101.364 52.392 101.608 52.448 101.816 52.56C102.032 52.672 102.228 52.836 102.404 53.052C102.508 52.98 102.624 52.908 102.752 52.836C102.88 52.756 103.012 52.684 103.148 52.62C103.284 52.548 103.424 52.492 103.568 52.452C103.712 52.412 103.852 52.392 103.988 52.392C104.492 52.392 104.888 52.532 105.176 52.812C105.464 53.084 105.608 53.496 105.608 54.048V56.184C105.608 56.448 105.68 56.624 105.824 56.712C105.976 56.792 106.196 56.856 106.484 56.904V57.048C106.228 57.032 105.968 57.02 105.704 57.012C105.44 57.004 105.172 57 104.9 57C104.716 57 104.54 57.004 104.372 57.012C104.204 57.02 104.048 57.032 103.904 57.048V56.904C104.136 56.856 104.32 56.792 104.456 56.712C104.6 56.624 104.672 56.448 104.672 56.184V54.168C104.672 53.776 104.572 53.484 104.372 53.292C104.18 53.092 103.956 52.992 103.7 52.992C103.212 52.992 102.82 53.12 102.524 53.376V56.184C102.524 56.448 102.596 56.624 102.74 56.712C102.884 56.792 103.088 56.856 103.352 56.904V57.048C103.12 57.032 102.872 57.02 102.608 57.012C102.352 57.004 102.088 57 101.816 57C101.632 57 101.456 57.004 101.288 57.012C101.12 57.02 100.964 57.032 100.82 57.048V56.904C101.052 56.856 101.236 56.792 101.372 56.712C101.516 56.624 101.588 56.448 101.588 56.184V54.168C101.588 53.776 101.528 53.472 101.408 53.256C101.288 53.032 101.024 52.92 100.616 52.92C100.496 52.92 100.388 52.932 100.292 52.956C100.204 52.972 100.116 53.004 100.028 53.052C99.9397 53.1 99.8477 53.164 99.7517 53.244C99.6637 53.316 99.5597 53.408 99.4397 53.52V56.184ZM109.752 53.496C109.816 53.248 109.904 53.052 110.016 52.908C110.136 52.756 110.272 52.644 110.424 52.572C110.576 52.492 110.748 52.444 110.94 52.428C111.132 52.404 111.336 52.392 111.552 52.392C111.76 52.392 111.964 52.416 112.164 52.464C112.372 52.504 112.556 52.576 112.716 52.68C112.884 52.784 113.016 52.924 113.112 53.1C113.216 53.268 113.268 53.476 113.268 53.724V55.944C113.268 56.096 113.308 56.232 113.388 56.352C113.468 56.464 113.592 56.52 113.76 56.52C113.92 56.52 114.06 56.476 114.18 56.388C114.308 56.292 114.428 56.2 114.54 56.112L114.66 56.244C114.58 56.324 114.484 56.42 114.372 56.532C114.268 56.636 114.156 56.74 114.036 56.844C113.916 56.94 113.792 57.02 113.664 57.084C113.544 57.156 113.424 57.192 113.304 57.192C113.224 57.192 113.14 57.164 113.052 57.108C112.964 57.06 112.876 57 112.788 56.928C112.708 56.856 112.632 56.78 112.56 56.7C112.488 56.62 112.424 56.552 112.368 56.496C112.112 56.672 111.824 56.832 111.504 56.976C111.184 57.12 110.872 57.192 110.568 57.192C110.4 57.192 110.236 57.164 110.076 57.108C109.924 57.052 109.788 56.972 109.668 56.868C109.548 56.764 109.452 56.64 109.38 56.496C109.308 56.352 109.272 56.188 109.272 56.004C109.272 55.676 109.364 55.416 109.548 55.224C109.732 55.024 109.968 54.872 110.256 54.768C110.552 54.664 110.884 54.596 111.252 54.564C111.628 54.524 112.004 54.5 112.38 54.492V53.58C112.38 53.284 112.288 53.056 112.104 52.896C111.92 52.736 111.688 52.656 111.408 52.656C111.2 52.656 111.036 52.76 110.916 52.968C110.796 53.176 110.736 53.412 110.736 53.676L109.752 53.496ZM112.356 54.96C112.092 54.888 111.824 54.852 111.552 54.852C111.4 54.852 111.248 54.872 111.096 54.912C110.944 54.944 110.808 55 110.688 55.08C110.568 55.16 110.468 55.264 110.388 55.392C110.316 55.512 110.28 55.66 110.28 55.836C110.28 56.108 110.372 56.304 110.556 56.424C110.748 56.536 110.96 56.592 111.192 56.592C111.448 56.592 111.68 56.54 111.888 56.436C112.104 56.332 112.26 56.244 112.356 56.172V54.96ZM116.938 56.904C117.154 56.88 117.318 56.84 117.43 56.784C117.55 56.728 117.634 56.648 117.682 56.544C117.738 56.44 117.77 56.308 117.778 56.148C117.794 55.98 117.802 55.776 117.802 55.536V49.968C117.802 49.736 117.782 49.548 117.742 49.404C117.71 49.252 117.658 49.136 117.586 49.056C117.514 48.968 117.418 48.908 117.298 48.876C117.186 48.844 117.054 48.824 116.902 48.816V48.672L118.738 48.456V54.9C118.826 54.82 118.966 54.708 119.158 54.564C119.358 54.412 119.558 54.252 119.758 54.084C119.958 53.908 120.134 53.736 120.286 53.568C120.438 53.392 120.514 53.236 120.514 53.1C120.514 52.972 120.482 52.884 120.418 52.836C120.362 52.78 120.274 52.744 120.154 52.728V52.584H122.494V52.728C122.254 52.768 122.03 52.84 121.822 52.944C121.614 53.04 121.414 53.156 121.222 53.292C121.03 53.42 120.842 53.56 120.658 53.712C120.482 53.864 120.306 54.012 120.13 54.156C120.314 54.372 120.51 54.628 120.718 54.924C120.926 55.22 121.15 55.508 121.39 55.788C121.63 56.068 121.886 56.316 122.158 56.532C122.438 56.74 122.734 56.864 123.046 56.904V57.048C122.806 57.032 122.562 57.02 122.314 57.012C122.074 57.004 121.83 57 121.582 57C121.326 57 121.074 57.004 120.826 57.012C120.578 57.02 120.326 57.032 120.07 57.048V56.904C120.206 56.912 120.346 56.884 120.49 56.82C120.634 56.756 120.706 56.64 120.706 56.472C120.706 56.368 120.654 56.236 120.55 56.076C120.454 55.908 120.338 55.74 120.202 55.572C120.074 55.396 119.942 55.228 119.806 55.068C119.67 54.9 119.57 54.768 119.506 54.672L118.738 55.248V56.136C118.738 56.392 118.794 56.576 118.906 56.688C119.018 56.792 119.242 56.864 119.578 56.904V57.048C119.314 57.032 119.05 57.02 118.786 57.012C118.53 57.004 118.27 57 118.006 57C117.822 57 117.642 57.004 117.466 57.012C117.298 57.02 117.122 57.032 116.938 57.048V56.904ZM126.792 54.48C126.792 54.896 126.844 55.24 126.948 55.512C127.06 55.784 127.196 56 127.356 56.16C127.524 56.32 127.7 56.432 127.884 56.496C128.076 56.56 128.252 56.592 128.412 56.592C128.748 56.592 129.052 56.54 129.324 56.436C129.596 56.324 129.848 56.152 130.08 55.92L130.284 56.112C129.956 56.464 129.62 56.732 129.276 56.916C128.932 57.1 128.52 57.192 128.04 57.192C127.696 57.192 127.388 57.124 127.116 56.988C126.844 56.852 126.612 56.672 126.42 56.448C126.228 56.224 126.08 55.968 125.976 55.68C125.88 55.392 125.832 55.096 125.832 54.792C125.832 54.488 125.88 54.192 125.976 53.904C126.08 53.616 126.228 53.36 126.42 53.136C126.612 52.912 126.844 52.732 127.116 52.596C127.388 52.46 127.696 52.392 128.04 52.392C128.672 52.392 129.18 52.564 129.564 52.908C129.948 53.252 130.184 53.776 130.272 54.48H126.792ZM129.132 54.12C129.108 53.904 129.076 53.712 129.036 53.544C128.996 53.368 128.932 53.224 128.844 53.112C128.756 52.992 128.64 52.904 128.496 52.848C128.352 52.784 128.168 52.752 127.944 52.752C127.776 52.752 127.62 52.796 127.476 52.884C127.34 52.964 127.22 53.072 127.116 53.208C127.02 53.336 126.944 53.484 126.888 53.652C126.84 53.812 126.816 53.968 126.816 54.12H129.132ZM140.188 55.536C140.188 55.872 140.272 56.132 140.44 56.316C140.616 56.5 140.872 56.592 141.208 56.592C141.464 56.592 141.716 56.532 141.964 56.412C142.22 56.284 142.408 56.152 142.528 56.016V53.484C142.528 53.38 142.52 53.284 142.504 53.196C142.488 53.108 142.448 53.032 142.384 52.968C142.32 52.896 142.224 52.836 142.096 52.788C141.968 52.732 141.796 52.688 141.58 52.656V52.524L143.464 52.392V56.076C143.464 56.38 143.54 56.584 143.692 56.688C143.852 56.784 144.072 56.84 144.352 56.856V56.976C144.048 56.992 143.74 57.004 143.428 57.012C143.124 57.02 142.824 57.032 142.528 57.048V56.424C142.248 56.632 141.952 56.812 141.64 56.964C141.336 57.116 141.004 57.192 140.644 57.192C140.26 57.192 139.932 57.084 139.66 56.868C139.388 56.652 139.252 56.32 139.252 55.872V53.388C139.252 53.148 139.184 52.984 139.048 52.896C138.92 52.808 138.688 52.744 138.352 52.704V52.548L140.188 52.392V55.536ZM148.805 55.932C148.893 56.172 149.073 56.384 149.345 56.568C149.625 56.744 149.941 56.832 150.293 56.832C150.789 56.832 151.157 56.644 151.397 56.268C151.637 55.892 151.757 55.416 151.757 54.84C151.757 54.6 151.725 54.36 151.661 54.12C151.605 53.88 151.517 53.664 151.397 53.472C151.277 53.28 151.125 53.124 150.941 53.004C150.757 52.884 150.541 52.824 150.293 52.824C149.933 52.824 149.617 52.892 149.345 53.028C149.073 53.164 148.893 53.34 148.805 53.556V55.932ZM148.805 58.812C148.805 59.004 148.817 59.16 148.841 59.28C148.865 59.4 148.925 59.496 149.021 59.568C149.125 59.64 149.273 59.692 149.465 59.724C149.665 59.756 149.937 59.776 150.281 59.784V59.928C149.985 59.912 149.689 59.9 149.393 59.892C149.097 59.884 148.801 59.88 148.505 59.88C148.233 59.88 147.961 59.884 147.689 59.892C147.425 59.9 147.157 59.912 146.885 59.928V59.784C147.053 59.768 147.197 59.744 147.317 59.712C147.437 59.688 147.537 59.644 147.617 59.58C147.705 59.524 147.769 59.44 147.809 59.328C147.849 59.224 147.869 59.08 147.869 58.896V53.664C147.869 53.328 147.801 53.104 147.665 52.992C147.529 52.88 147.297 52.808 146.969 52.776V52.644L148.805 52.464V52.968C149.093 52.76 149.361 52.612 149.609 52.524C149.865 52.436 150.169 52.392 150.521 52.392C150.873 52.392 151.189 52.452 151.469 52.572C151.757 52.692 151.997 52.86 152.189 53.076C152.389 53.292 152.541 53.548 152.645 53.844C152.757 54.14 152.813 54.464 152.813 54.816C152.813 55.184 152.741 55.516 152.597 55.812C152.461 56.1 152.273 56.348 152.033 56.556C151.801 56.756 151.525 56.912 151.205 57.024C150.893 57.136 150.565 57.192 150.221 57.192C149.973 57.192 149.729 57.16 149.489 57.096C149.249 57.04 149.021 56.944 148.805 56.808V58.812Z" fill="white"/>
<defs>
<filter id="filter0_d_381_11" x="-4" y="0" width="179" height="93" filterUnits="userSpaceOnUse" color-interpolation-filters="sRGB">
<feFlood flood-opacity="0" result="BackgroundImageFix"/>
<feColorMatrix in="SourceAlpha" type="matrix" values="0 0 0 0 0 0 0 0 0 0 0 0 0 0 0 0 0 0 127 0" result="hardAlpha"/>
<feOffset dy="4"/>
<feGaussianBlur stdDeviation="2"/>
<feComposite in2="hardAlpha" operator="out"/>
<feColorMatrix type="matrix" values="0 0 0 0 0 0 0 0 0 0 0 0 0 0 0 0 0 0 0.25 0"/>
<feBlend mode="normal" in2="BackgroundImageFix" result="effect1_dropShadow_381_11"/>
<feBlend mode="normal" in="SourceGraphic" in2="effect1_dropShadow_381_11" result="shape"/>
</filter>
<linearGradient id="paint0_linear_381_11" x1="3.5703e-07" y1="43.1967" x2="170.864" y2="48.0166" gradientUnits="userSpaceOnUse">
<stop offset="0.227429" stop-color="#E3207F" stop-opacity="0.84"/>
<stop offset="1" stop-color="#2D0226" stop-opacity="0.45"/>
</linearGradient>
</defs>
</svg>
