<svg width="32" height="1261" viewBox="0 0 32 1261" fill="none" xmlns="http://www.w3.org/2000/svg">
<circle cx="8.5" cy="30.5" r="8.5" fill="#BF1B6B"/>
<path d="M10 29L26.3309 39.2898C29.237 41.121 31 44.3155 31 47.7504V199" stroke="#BF1B6B" stroke-width="2"/>
<circle cx="8.5" cy="277.5" r="8.5" fill="#BF1B6B"/>
<path d="M10 276L26.3309 286.29C29.237 288.121 31 291.316 31 294.75V446" stroke="#BF1B6B" stroke-width="2"/>
<circle cx="8.5" cy="523.5" r="8.5" fill="#BF1B6B"/>
<path d="M10 522L26.3309 532.29C29.237 534.121 31 537.316 31 540.75V692" stroke="#BF1B6B" stroke-width="2"/>
<circle cx="8.5" cy="770.5" r="8.5" fill="#BF1B6B"/>
<path d="M10 769L26.3309 779.29C29.237 781.121 31 784.316 31 787.75V939" stroke="#BF1B6B" stroke-width="2"/>
<circle cx="8.5" cy="1017.5" r="8.5" fill="#BF1B6B"/>
<circle cx="8.5" cy="1252.5" r="8.5" fill="#BF1B6B"/>
<path d="M10 1016L26.3309 1026.29C29.237 1028.12 31 1031.32 31 1034.75V1186" stroke="#BF1B6B" stroke-width="2"/>
<path d="M9 0L9.00006 1260" stroke="#BF1B6B" stroke-width="2"/>
</svg>
