<svg width="172" height="84" viewBox="0 0 172 84" fill="none" xmlns="http://www.w3.org/2000/svg">
<g filter="url(#filter0_d_155_35)">
<rect x="4" width="163.356" height="76" fill="url(#paint0_linear_155_35)" shape-rendering="crispEdges"/>
</g>
<rect x="8" y="3" width="159.862" height="69.0115" fill="black"/>
<path d="M32.788 33.682C32.788 34.27 32.802 34.76 32.83 35.152C32.872 35.53 32.963 35.838 33.103 36.076C33.257 36.314 33.481 36.489 33.775 36.601C34.069 36.713 34.475 36.79 34.993 36.832V37.084C34.461 37.056 33.929 37.035 33.397 37.021C32.865 37.007 32.333 37 31.801 37C31.283 37 30.772 37.007 30.268 37.021C29.764 37.035 29.26 37.056 28.756 37.084V36.832C29.26 36.79 29.652 36.713 29.932 36.601C30.212 36.489 30.422 36.314 30.562 36.076C30.716 35.838 30.807 35.53 30.835 35.152C30.877 34.76 30.898 34.27 30.898 33.682V26.668C30.898 26.08 30.877 25.597 30.835 25.219C30.807 24.827 30.716 24.512 30.562 24.274C30.422 24.036 30.205 23.861 29.911 23.749C29.617 23.637 29.218 23.56 28.714 23.518V23.266C29.302 23.294 29.869 23.315 30.415 23.329C30.975 23.343 31.549 23.35 32.137 23.35C32.599 23.35 33.061 23.343 33.523 23.329C33.985 23.315 34.44 23.294 34.888 23.266V23.518C34.398 23.56 34.013 23.637 33.733 23.749C33.453 23.861 33.243 24.036 33.103 24.274C32.963 24.512 32.872 24.827 32.83 25.219C32.802 25.597 32.788 26.08 32.788 26.668V30.217L35.98 27.613C36.274 27.375 36.554 27.13 36.82 26.878C37.086 26.612 37.317 26.346 37.513 26.08C37.723 25.814 37.884 25.562 37.996 25.324C38.122 25.086 38.185 24.869 38.185 24.673C38.185 24.463 38.136 24.288 38.038 24.148C37.954 23.994 37.835 23.875 37.681 23.791C37.541 23.693 37.38 23.623 37.198 23.581C37.016 23.539 36.834 23.518 36.652 23.518V23.266C37.184 23.294 37.702 23.315 38.206 23.329C38.724 23.343 39.249 23.35 39.781 23.35C40.341 23.35 40.894 23.343 41.44 23.329C42 23.315 42.56 23.294 43.12 23.266V23.518C42.756 23.56 42.413 23.63 42.091 23.728C41.783 23.826 41.461 23.973 41.125 24.169C40.803 24.351 40.453 24.589 40.075 24.883C39.711 25.163 39.284 25.513 38.794 25.933L36.19 28.159L40.432 34.396C40.866 35.012 41.356 35.558 41.902 36.034C42.462 36.51 43.113 36.776 43.855 36.832V37.084C43.253 37.056 42.651 37.035 42.049 37.021C41.447 37.007 40.845 37 40.243 37C39.697 37 39.151 37.007 38.605 37.021C38.073 37.035 37.534 37.056 36.988 37.084V36.832C37.492 36.804 37.926 36.699 38.29 36.517C38.668 36.335 38.857 36.013 38.857 35.551C38.857 35.355 38.78 35.145 38.626 34.921C38.472 34.697 38.255 34.382 37.975 33.976L34.804 29.314L32.788 30.889V33.682ZM48.1434 30.931L46.7574 34.732C46.7154 34.844 46.6734 34.942 46.6314 35.026C46.6034 35.11 46.5894 35.201 46.5894 35.299C46.5894 35.551 46.6594 35.768 46.7994 35.95C46.9534 36.132 47.1354 36.286 47.3454 36.412C47.5554 36.524 47.7724 36.615 47.9964 36.685C48.2204 36.755 48.4094 36.804 48.5634 36.832V37.084C48.1434 37.056 47.7234 37.035 47.3034 37.021C46.8834 37.007 46.4564 37 46.0224 37C45.6024 37 45.1894 37.007 44.7834 37.021C44.3914 37.035 43.9714 37.056 43.5234 37.084V36.832C43.9574 36.734 44.3144 36.587 44.5944 36.391C44.8884 36.181 45.1334 35.936 45.3294 35.656C45.5254 35.376 45.6934 35.068 45.8334 34.732C45.9874 34.396 46.1344 34.046 46.2744 33.682L49.9074 24.757C49.9494 24.659 49.9844 24.568 50.0124 24.484C50.0544 24.4 50.0754 24.323 50.0754 24.253C50.0754 24.183 50.0474 24.078 49.9914 23.938C49.9494 23.798 49.8934 23.672 49.8234 23.56C50.1874 23.49 50.5024 23.399 50.7684 23.287C51.0344 23.175 51.3284 23.056 51.6504 22.93L56.0184 34.942C56.2144 35.488 56.4874 35.922 56.8374 36.244C57.1874 36.552 57.7054 36.748 58.3914 36.832V37.084C57.8314 37.056 57.2784 37.035 56.7324 37.021C56.2004 37.007 55.6404 37 55.0524 37C54.6744 37 54.3454 37 54.0654 37C53.7854 37 53.5334 37 53.3094 37C53.0854 37.014 52.8684 37.028 52.6584 37.042C52.4624 37.056 52.2454 37.07 52.0074 37.084V36.832C52.5954 36.762 53.0854 36.615 53.4774 36.391C53.8834 36.153 54.0864 35.838 54.0864 35.446C54.0864 35.334 54.0584 35.222 54.0024 35.11C53.9604 34.998 53.9254 34.893 53.8974 34.795L52.5324 30.931H48.1434ZM50.4114 24.967L48.3534 30.301H52.3014L50.4114 24.967ZM73.8496 37H70.0696C69.1876 36.034 68.3686 35.047 67.6126 34.039C66.8706 33.017 66.2056 31.939 65.6176 30.805C65.4776 30.805 65.2956 30.791 65.0716 30.763C64.8616 30.735 64.6376 30.707 64.3996 30.679C64.1756 30.637 63.9516 30.595 63.7276 30.553C63.5176 30.497 63.3426 30.448 63.2026 30.406V33.682C63.2026 34.27 63.2166 34.76 63.2446 35.152C63.2866 35.53 63.3776 35.838 63.5176 36.076C63.6716 36.314 63.8956 36.489 64.1896 36.601C64.4836 36.713 64.8896 36.79 65.4076 36.832V37.084C64.8756 37.056 64.3436 37.035 63.8116 37.021C63.2796 37.007 62.7476 37 62.2156 37C61.6976 37 61.1866 37.007 60.6826 37.021C60.1786 37.035 59.6746 37.056 59.1706 37.084V36.832C59.6746 36.79 60.0666 36.713 60.3466 36.601C60.6266 36.489 60.8366 36.314 60.9766 36.076C61.1306 35.838 61.2216 35.53 61.2496 35.152C61.2916 34.76 61.3126 34.27 61.3126 33.682V26.668C61.3126 26.08 61.2916 25.597 61.2496 25.219C61.2216 24.827 61.1306 24.512 60.9766 24.274C60.8366 24.036 60.6266 23.861 60.3466 23.749C60.0666 23.637 59.6746 23.56 59.1706 23.518V23.266C59.6186 23.294 60.0666 23.315 60.5146 23.329C60.9626 23.343 61.4106 23.35 61.8586 23.35C62.0546 23.35 62.2996 23.343 62.5936 23.329C62.8876 23.301 63.1956 23.273 63.5176 23.245C63.8536 23.217 64.1896 23.196 64.5256 23.182C64.8616 23.154 65.1626 23.14 65.4286 23.14C66.0306 23.14 66.6466 23.217 67.2766 23.371C67.9066 23.525 68.4736 23.77 68.9776 24.106C69.4816 24.442 69.8946 24.869 70.2166 25.387C70.5386 25.905 70.6996 26.521 70.6996 27.235C70.6996 27.725 70.6086 28.159 70.4266 28.537C70.2586 28.915 70.0276 29.244 69.7336 29.524C69.4396 29.804 69.0896 30.035 68.6836 30.217C68.2916 30.399 67.8786 30.532 67.4446 30.616C67.6406 30.952 67.8716 31.33 68.1376 31.75C68.4036 32.17 68.6976 32.597 69.0196 33.031C69.3556 33.465 69.7056 33.899 70.0696 34.333C70.4476 34.753 70.8396 35.138 71.2456 35.488C71.6656 35.824 72.0926 36.111 72.5266 36.349C72.9606 36.573 73.4016 36.706 73.8496 36.748V37ZM63.2026 29.692C63.8326 29.93 64.4836 30.049 65.1556 30.049C66.2476 30.049 67.0946 29.797 67.6966 29.293C68.2986 28.789 68.5996 27.97 68.5996 26.836C68.5996 26.374 68.5086 25.961 68.3266 25.597C68.1586 25.219 67.9206 24.897 67.6126 24.631C67.3046 24.351 66.9476 24.141 66.5416 24.001C66.1496 23.847 65.7366 23.77 65.3026 23.77C64.9526 23.77 64.6096 23.784 64.2736 23.812C63.9376 23.84 63.6086 23.903 63.2866 24.001C63.2586 24.673 63.2376 25.352 63.2236 26.038C63.2096 26.724 63.2026 27.466 63.2026 28.264V29.692ZM78.0848 30.931L76.6988 34.732C76.6568 34.844 76.6148 34.942 76.5728 35.026C76.5448 35.11 76.5308 35.201 76.5308 35.299C76.5308 35.551 76.6008 35.768 76.7408 35.95C76.8948 36.132 77.0768 36.286 77.2868 36.412C77.4968 36.524 77.7138 36.615 77.9378 36.685C78.1618 36.755 78.3508 36.804 78.5048 36.832V37.084C78.0848 37.056 77.6648 37.035 77.2448 37.021C76.8248 37.007 76.3978 37 75.9638 37C75.5438 37 75.1308 37.007 74.7248 37.021C74.3328 37.035 73.9128 37.056 73.4648 37.084V36.832C73.8988 36.734 74.2558 36.587 74.5358 36.391C74.8298 36.181 75.0748 35.936 75.2708 35.656C75.4668 35.376 75.6348 35.068 75.7748 34.732C75.9288 34.396 76.0758 34.046 76.2158 33.682L79.8488 24.757C79.8908 24.659 79.9258 24.568 79.9538 24.484C79.9958 24.4 80.0168 24.323 80.0168 24.253C80.0168 24.183 79.9888 24.078 79.9328 23.938C79.8908 23.798 79.8348 23.672 79.7648 23.56C80.1288 23.49 80.4438 23.399 80.7098 23.287C80.9758 23.175 81.2698 23.056 81.5918 22.93L85.9598 34.942C86.1558 35.488 86.4288 35.922 86.7788 36.244C87.1288 36.552 87.6468 36.748 88.3328 36.832V37.084C87.7728 37.056 87.2198 37.035 86.6738 37.021C86.1418 37.007 85.5818 37 84.9938 37C84.6158 37 84.2868 37 84.0068 37C83.7268 37 83.4748 37 83.2508 37C83.0268 37.014 82.8098 37.028 82.5998 37.042C82.4038 37.056 82.1868 37.07 81.9488 37.084V36.832C82.5368 36.762 83.0268 36.615 83.4188 36.391C83.8248 36.153 84.0278 35.838 84.0278 35.446C84.0278 35.334 83.9998 35.222 83.9438 35.11C83.9018 34.998 83.8668 34.893 83.8388 34.795L82.4738 30.931H78.0848ZM80.3528 24.967L78.2948 30.301H82.2428L80.3528 24.967ZM86.0922 23.266C86.5822 23.294 87.0652 23.315 87.5412 23.329C88.0172 23.343 88.5002 23.35 88.9902 23.35C89.5782 23.35 90.1522 23.343 90.7122 23.329C91.2722 23.315 91.8322 23.294 92.3922 23.266V23.518C92.1962 23.546 91.9862 23.581 91.7622 23.623C91.5382 23.665 91.3282 23.735 91.1322 23.833C90.9362 23.917 90.7752 24.036 90.6492 24.19C90.5232 24.344 90.4602 24.554 90.4602 24.82C90.4602 25.072 90.6632 25.702 91.0692 26.71L94.3662 34.69L97.0962 28.243C97.7962 26.549 98.1462 25.394 98.1462 24.778C98.1462 24.554 98.0972 24.365 97.9992 24.211C97.9012 24.057 97.7682 23.938 97.6002 23.854C97.4322 23.756 97.2432 23.686 97.0332 23.644C96.8372 23.588 96.6342 23.546 96.4242 23.518V23.266C96.9002 23.294 97.3692 23.315 97.8312 23.329C98.3072 23.343 98.7762 23.35 99.2382 23.35C99.6302 23.35 100.015 23.343 100.393 23.329C100.771 23.315 101.149 23.294 101.527 23.266V23.518C101.037 23.574 100.624 23.735 100.288 24.001C99.9522 24.267 99.6652 24.589 99.4272 24.967C99.1892 25.345 98.9792 25.751 98.7972 26.185C98.6292 26.619 98.4612 27.025 98.2932 27.403L93.9252 37.21H93.4632L88.5702 25.702C88.3182 25.1 88.0032 24.603 87.6252 24.211C87.2612 23.805 86.7502 23.574 86.0922 23.518V23.266ZM105.981 36.181C106.107 36.209 106.261 36.237 106.443 36.265C106.625 36.293 106.821 36.321 107.031 36.349C107.241 36.377 107.458 36.405 107.682 36.433C107.906 36.447 108.116 36.454 108.312 36.454C109.152 36.454 109.901 36.384 110.559 36.244C111.231 36.104 111.84 35.88 112.386 35.572C112.946 35.264 113.471 34.872 113.961 34.396C114.451 33.92 114.948 33.346 115.452 32.674L115.683 32.863L113.772 37.084C113.534 37.056 113.289 37.035 113.037 37.021C112.785 37.007 112.54 37 112.302 37H104.406C104 37 103.594 37.007 103.188 37.021C102.782 37.035 102.376 37.056 101.97 37.084V36.832C102.474 36.79 102.866 36.713 103.146 36.601C103.426 36.489 103.636 36.314 103.776 36.076C103.916 35.838 104 35.53 104.028 35.152C104.07 34.76 104.091 34.27 104.091 33.682V26.668C104.091 26.08 104.07 25.597 104.028 25.219C104 24.827 103.916 24.512 103.776 24.274C103.636 24.036 103.419 23.861 103.125 23.749C102.831 23.637 102.432 23.56 101.928 23.518V23.266C102.404 23.28 102.852 23.294 103.272 23.308C103.706 23.322 104.147 23.336 104.595 23.35C105.057 23.35 105.54 23.35 106.044 23.35C106.562 23.35 107.143 23.35 107.787 23.35C108.767 23.35 109.747 23.343 110.727 23.329C111.707 23.315 112.701 23.294 113.709 23.266C113.695 23.42 113.681 23.574 113.667 23.728C113.667 23.882 113.667 24.029 113.667 24.169V25.009C113.667 25.317 113.681 25.632 113.709 25.954C113.737 26.262 113.765 26.605 113.793 26.983L113.52 27.067C113.338 26.395 113.093 25.849 112.785 25.429C112.491 24.995 112.141 24.659 111.735 24.421C111.343 24.183 110.909 24.022 110.433 23.938C109.957 23.854 109.453 23.812 108.921 23.812C107.941 23.812 106.961 23.854 105.981 23.938V29.188C106.261 29.188 106.527 29.181 106.779 29.167C107.045 29.153 107.318 29.146 107.598 29.146C108.564 29.146 109.327 28.957 109.887 28.579C110.461 28.187 110.811 27.48 110.937 26.458H111.189C111.189 26.962 111.182 27.466 111.168 27.97C111.154 28.474 111.147 28.971 111.147 29.461C111.147 29.965 111.154 30.469 111.168 30.973C111.182 31.477 111.189 31.981 111.189 32.485H110.937C110.811 31.897 110.657 31.421 110.475 31.057C110.293 30.679 110.062 30.392 109.782 30.196C109.516 30 109.18 29.867 108.774 29.797C108.368 29.727 107.885 29.692 107.325 29.692H105.981V36.181ZM131.025 37H127.245C126.363 36.034 125.544 35.047 124.788 34.039C124.046 33.017 123.381 31.939 122.793 30.805C122.653 30.805 122.471 30.791 122.247 30.763C122.037 30.735 121.813 30.707 121.575 30.679C121.351 30.637 121.127 30.595 120.903 30.553C120.693 30.497 120.518 30.448 120.378 30.406V33.682C120.378 34.27 120.392 34.76 120.42 35.152C120.462 35.53 120.553 35.838 120.693 36.076C120.847 36.314 121.071 36.489 121.365 36.601C121.659 36.713 122.065 36.79 122.583 36.832V37.084C122.051 37.056 121.519 37.035 120.987 37.021C120.455 37.007 119.923 37 119.391 37C118.873 37 118.362 37.007 117.858 37.021C117.354 37.035 116.85 37.056 116.346 37.084V36.832C116.85 36.79 117.242 36.713 117.522 36.601C117.802 36.489 118.012 36.314 118.152 36.076C118.306 35.838 118.397 35.53 118.425 35.152C118.467 34.76 118.488 34.27 118.488 33.682V26.668C118.488 26.08 118.467 25.597 118.425 25.219C118.397 24.827 118.306 24.512 118.152 24.274C118.012 24.036 117.802 23.861 117.522 23.749C117.242 23.637 116.85 23.56 116.346 23.518V23.266C116.794 23.294 117.242 23.315 117.69 23.329C118.138 23.343 118.586 23.35 119.034 23.35C119.23 23.35 119.475 23.343 119.769 23.329C120.063 23.301 120.371 23.273 120.693 23.245C121.029 23.217 121.365 23.196 121.701 23.182C122.037 23.154 122.338 23.14 122.604 23.14C123.206 23.14 123.822 23.217 124.452 23.371C125.082 23.525 125.649 23.77 126.153 24.106C126.657 24.442 127.07 24.869 127.392 25.387C127.714 25.905 127.875 26.521 127.875 27.235C127.875 27.725 127.784 28.159 127.602 28.537C127.434 28.915 127.203 29.244 126.909 29.524C126.615 29.804 126.265 30.035 125.859 30.217C125.467 30.399 125.054 30.532 124.62 30.616C124.816 30.952 125.047 31.33 125.313 31.75C125.579 32.17 125.873 32.597 126.195 33.031C126.531 33.465 126.881 33.899 127.245 34.333C127.623 34.753 128.015 35.138 128.421 35.488C128.841 35.824 129.268 36.111 129.702 36.349C130.136 36.573 130.577 36.706 131.025 36.748V37ZM120.378 29.692C121.008 29.93 121.659 30.049 122.331 30.049C123.423 30.049 124.27 29.797 124.872 29.293C125.474 28.789 125.775 27.97 125.775 26.836C125.775 26.374 125.684 25.961 125.502 25.597C125.334 25.219 125.096 24.897 124.788 24.631C124.48 24.351 124.123 24.141 123.717 24.001C123.325 23.847 122.912 23.77 122.478 23.77C122.128 23.77 121.785 23.784 121.449 23.812C121.113 23.84 120.784 23.903 120.462 24.001C120.434 24.673 120.413 25.352 120.399 26.038C120.385 26.724 120.378 27.466 120.378 28.264V29.692ZM131.019 23.266C131.509 23.294 131.971 23.315 132.405 23.329C132.853 23.343 133.371 23.35 133.959 23.35C134.267 23.35 134.568 23.343 134.862 23.329C135.156 23.315 135.457 23.294 135.765 23.266C135.947 23.518 136.248 23.903 136.668 24.421C137.088 24.925 137.564 25.506 138.096 26.164C138.642 26.822 139.223 27.522 139.839 28.264C140.455 29.006 141.05 29.734 141.624 30.448C142.198 31.148 142.723 31.806 143.199 32.422C143.689 33.024 144.074 33.521 144.354 33.913H144.396C144.396 33.493 144.396 33.08 144.396 32.674C144.41 32.254 144.417 31.834 144.417 31.414V28.978C144.417 28.082 144.382 27.305 144.312 26.647C144.256 25.975 144.13 25.415 143.934 24.967C143.752 24.519 143.486 24.176 143.136 23.938C142.8 23.7 142.352 23.56 141.792 23.518V23.266C142.282 23.294 142.772 23.315 143.262 23.329C143.766 23.343 144.263 23.35 144.753 23.35C145.201 23.35 145.656 23.343 146.118 23.329C146.58 23.315 147.035 23.294 147.483 23.266V23.518C146.601 23.63 145.992 23.889 145.656 24.295C145.334 24.687 145.173 25.296 145.173 26.122V37.252H144.396C143.626 36.048 142.807 34.879 141.939 33.745C141.085 32.611 140.231 31.533 139.377 30.511C138.537 29.489 137.718 28.544 136.92 27.676C136.136 26.794 135.429 26.01 134.799 25.324C134.785 25.688 134.771 26.045 134.757 26.395C134.757 26.745 134.757 27.102 134.757 27.466V31.141C134.757 32.387 134.778 33.374 134.82 34.102C134.876 34.816 134.995 35.369 135.177 35.761C135.373 36.139 135.653 36.398 136.017 36.538C136.395 36.664 136.913 36.762 137.571 36.832V37.084C136.857 37.056 136.164 37.035 135.492 37.021C134.82 37.007 134.127 37 133.413 37C133.007 37 132.608 37.007 132.216 37.021C131.824 37.035 131.425 37.056 131.019 37.084V36.832C131.495 36.762 131.908 36.699 132.258 36.643C132.622 36.573 132.916 36.468 133.14 36.328C133.378 36.174 133.553 35.964 133.665 35.698C133.791 35.418 133.861 35.033 133.875 34.543L134.127 24.904C133.679 24.54 133.189 24.253 132.657 24.043C132.125 23.833 131.579 23.658 131.019 23.518V23.266Z" fill="white"/>
<path d="M30.672 47.021C30.7527 47.241 30.9177 47.4353 31.167 47.604C31.4237 47.7653 31.7133 47.846 32.036 47.846C32.4907 47.846 32.828 47.6737 33.048 47.329C33.268 46.9843 33.378 46.548 33.378 46.02C33.378 45.8 33.3487 45.58 33.29 45.36C33.2387 45.14 33.158 44.942 33.048 44.766C32.938 44.59 32.7987 44.447 32.63 44.337C32.4613 44.227 32.2633 44.172 32.036 44.172C31.706 44.172 31.4163 44.2343 31.167 44.359C30.9177 44.4837 30.7527 44.645 30.672 44.843V47.021ZM30.672 49.661C30.672 49.837 30.683 49.98 30.705 50.09C30.727 50.2 30.782 50.288 30.87 50.354C30.9653 50.42 31.101 50.4677 31.277 50.497C31.4603 50.5263 31.7097 50.5447 32.025 50.552V50.684C31.7537 50.6693 31.4823 50.6583 31.211 50.651C30.9397 50.6437 30.6683 50.64 30.397 50.64C30.1477 50.64 29.8983 50.6437 29.649 50.651C29.407 50.6583 29.1613 50.6693 28.912 50.684V50.552C29.066 50.5373 29.198 50.5153 29.308 50.486C29.418 50.464 29.5097 50.4237 29.583 50.365C29.6637 50.3137 29.7223 50.2367 29.759 50.134C29.7957 50.0387 29.814 49.9067 29.814 49.738V44.942C29.814 44.634 29.7517 44.4287 29.627 44.326C29.5023 44.2233 29.2897 44.1573 28.989 44.128V44.007L30.672 43.842V44.304C30.936 44.1133 31.1817 43.9777 31.409 43.897C31.6437 43.8163 31.9223 43.776 32.245 43.776C32.5677 43.776 32.8573 43.831 33.114 43.941C33.378 44.051 33.598 44.205 33.774 44.403C33.9573 44.601 34.0967 44.8357 34.192 45.107C34.2947 45.3783 34.346 45.6753 34.346 45.998C34.346 46.3353 34.28 46.6397 34.148 46.911C34.0233 47.175 33.851 47.4023 33.631 47.593C33.4183 47.7763 33.1653 47.9193 32.872 48.022C32.586 48.1247 32.2853 48.176 31.97 48.176C31.7427 48.176 31.519 48.1467 31.299 48.088C31.079 48.0367 30.87 47.9487 30.672 47.824V49.661ZM37.6472 45.69C37.6472 46.0713 37.6949 46.3867 37.7902 46.636C37.8929 46.8853 38.0175 47.0833 38.1642 47.23C38.3182 47.3767 38.4795 47.4793 38.6482 47.538C38.8242 47.5967 38.9855 47.626 39.1322 47.626C39.4402 47.626 39.7189 47.5783 39.9682 47.483C40.2175 47.3803 40.4485 47.2227 40.6612 47.01L40.8482 47.186C40.5475 47.5087 40.2395 47.7543 39.9242 47.923C39.6089 48.0917 39.2312 48.176 38.7912 48.176C38.4759 48.176 38.1935 48.1137 37.9442 47.989C37.6949 47.8643 37.4822 47.6993 37.3062 47.494C37.1302 47.2887 36.9945 47.054 36.8992 46.79C36.8112 46.526 36.7672 46.2547 36.7672 45.976C36.7672 45.6973 36.8112 45.426 36.8992 45.162C36.9945 44.898 37.1302 44.6633 37.3062 44.458C37.4822 44.2527 37.6949 44.0877 37.9442 43.963C38.1935 43.8383 38.4759 43.776 38.7912 43.776C39.3705 43.776 39.8362 43.9337 40.1882 44.249C40.5402 44.5643 40.7565 45.0447 40.8372 45.69H37.6472ZM39.7922 45.36C39.7702 45.162 39.7409 44.986 39.7042 44.832C39.6675 44.6707 39.6089 44.5387 39.5282 44.436C39.4475 44.326 39.3412 44.2453 39.2092 44.194C39.0772 44.1353 38.9085 44.106 38.7032 44.106C38.5492 44.106 38.4062 44.1463 38.2742 44.227C38.1495 44.3003 38.0395 44.3993 37.9442 44.524C37.8562 44.6413 37.7865 44.777 37.7352 44.931C37.6912 45.0777 37.6692 45.2207 37.6692 45.36H39.7922ZM43.0849 47.912C43.3342 47.868 43.5249 47.8093 43.6569 47.736C43.7889 47.6553 43.8549 47.494 43.8549 47.252V44.7C43.8549 44.48 43.7779 44.3443 43.6239 44.293C43.4772 44.2417 43.3049 44.216 43.1069 44.216V44.084L44.7129 43.842V44.469C44.8009 44.4103 44.8999 44.3333 45.0099 44.238C45.1272 44.1427 45.2482 44.051 45.3729 43.963C45.5049 43.8677 45.6369 43.787 45.7689 43.721C45.9009 43.655 46.0292 43.622 46.1539 43.622C46.4399 43.622 46.6526 43.7027 46.7919 43.864C46.9386 44.018 47.0192 44.2343 47.0339 44.513L46.1539 44.975C46.1686 44.9237 46.1832 44.8723 46.1979 44.821C46.2126 44.7623 46.2199 44.689 46.2199 44.601C46.2199 44.4983 46.1832 44.403 46.1099 44.315C46.0366 44.2197 45.9376 44.172 45.8129 44.172C45.7102 44.172 45.6076 44.1977 45.5049 44.249C45.4022 44.3003 45.3032 44.3663 45.2079 44.447C45.1126 44.5203 45.0209 44.601 44.9329 44.689C44.8522 44.777 44.7789 44.854 44.7129 44.92V47.252C44.7129 47.494 44.7826 47.6553 44.9219 47.736C45.0612 47.8093 45.2702 47.868 45.5489 47.912V48.044C45.2996 48.0293 45.0502 48.0183 44.8009 48.011C44.5589 48.0037 44.3132 48 44.0639 48C43.8952 48 43.7302 48.0037 43.5689 48.011C43.4149 48.0183 43.2536 48.0293 43.0849 48.044V47.912ZM50.5943 47.252C50.5943 47.494 50.6603 47.6553 50.7923 47.736C50.9243 47.8093 51.1113 47.868 51.3533 47.912V48.044C51.1406 48.0293 50.9133 48.0183 50.6713 48.011C50.4366 48.0037 50.1946 48 49.9453 48C49.7766 48 49.6116 48.0037 49.4503 48.011C49.289 48.0183 49.1166 48.0293 48.9333 48.044V47.912C49.1973 47.868 49.3953 47.8093 49.5273 47.736C49.6666 47.6553 49.7363 47.494 49.7363 47.252V45.008C49.7363 44.832 49.7216 44.6927 49.6923 44.59C49.6703 44.4873 49.63 44.4103 49.5713 44.359C49.5126 44.3003 49.4356 44.26 49.3403 44.238C49.245 44.216 49.1276 44.2013 48.9883 44.194V44.062L50.5943 43.842V44.392C50.829 44.2233 51.06 44.0803 51.2873 43.963C51.522 43.8383 51.7933 43.776 52.1013 43.776C52.358 43.776 52.5816 43.8273 52.7723 43.93C52.9703 44.0327 53.15 44.183 53.3113 44.381C53.4066 44.315 53.513 44.249 53.6303 44.183C53.7476 44.1097 53.8686 44.0437 53.9933 43.985C54.118 43.919 54.2463 43.8677 54.3783 43.831C54.5103 43.7943 54.6386 43.776 54.7633 43.776C55.2253 43.776 55.5883 43.9043 55.8523 44.161C56.1163 44.4103 56.2483 44.788 56.2483 45.294V47.252C56.2483 47.494 56.3143 47.6553 56.4463 47.736C56.5856 47.8093 56.7873 47.868 57.0513 47.912V48.044C56.8166 48.0293 56.5783 48.0183 56.3363 48.011C56.0943 48.0037 55.8486 48 55.5993 48C55.4306 48 55.2693 48.0037 55.1153 48.011C54.9613 48.0183 54.8183 48.0293 54.6863 48.044V47.912C54.899 47.868 55.0676 47.8093 55.1923 47.736C55.3243 47.6553 55.3903 47.494 55.3903 47.252V45.404C55.3903 45.0447 55.2986 44.777 55.1153 44.601C54.9393 44.4177 54.734 44.326 54.4993 44.326C54.052 44.326 53.6926 44.4433 53.4213 44.678V47.252C53.4213 47.494 53.4873 47.6553 53.6193 47.736C53.7513 47.8093 53.9383 47.868 54.1803 47.912V48.044C53.9676 48.0293 53.7403 48.0183 53.4983 48.011C53.2636 48.0037 53.0216 48 52.7723 48C52.6036 48 52.4423 48.0037 52.2883 48.011C52.1343 48.0183 51.9913 48.0293 51.8593 48.044V47.912C52.072 47.868 52.2406 47.8093 52.3653 47.736C52.4973 47.6553 52.5633 47.494 52.5633 47.252V45.404C52.5633 45.0447 52.5083 44.766 52.3983 44.568C52.2883 44.3627 52.0463 44.26 51.6723 44.26C51.5623 44.26 51.4633 44.271 51.3753 44.293C51.2946 44.3077 51.214 44.337 51.1333 44.381C51.0526 44.425 50.9683 44.4837 50.8803 44.557C50.7996 44.623 50.7043 44.7073 50.5943 44.81V47.252ZM59.6068 44.788C59.6655 44.5607 59.7461 44.381 59.8488 44.249C59.9588 44.1097 60.0835 44.007 60.2228 43.941C60.3621 43.8677 60.5198 43.8237 60.6958 43.809C60.8718 43.787 61.0588 43.776 61.2568 43.776C61.4475 43.776 61.6345 43.798 61.8178 43.842C62.0085 43.8787 62.1771 43.9447 62.3238 44.04C62.4778 44.1353 62.5988 44.2637 62.6868 44.425C62.7821 44.579 62.8298 44.7697 62.8298 44.997V47.032C62.8298 47.1713 62.8665 47.296 62.9398 47.406C63.0131 47.5087 63.1268 47.56 63.2808 47.56C63.4275 47.56 63.5558 47.5197 63.6658 47.439C63.7831 47.351 63.8931 47.2667 63.9958 47.186L64.1058 47.307C64.0325 47.3803 63.9445 47.4683 63.8418 47.571C63.7465 47.6663 63.6438 47.7617 63.5338 47.857C63.4238 47.945 63.3101 48.0183 63.1928 48.077C63.0828 48.143 62.9728 48.176 62.8628 48.176C62.7895 48.176 62.7125 48.1503 62.6318 48.099C62.5511 48.055 62.4705 48 62.3898 47.934C62.3165 47.868 62.2468 47.7983 62.1808 47.725C62.1148 47.6517 62.0561 47.5893 62.0048 47.538C61.7701 47.6993 61.5061 47.846 61.2128 47.978C60.9195 48.11 60.6335 48.176 60.3548 48.176C60.2008 48.176 60.0505 48.1503 59.9038 48.099C59.7645 48.0477 59.6398 47.9743 59.5298 47.879C59.4198 47.7837 59.3318 47.67 59.2658 47.538C59.1998 47.406 59.1668 47.2557 59.1668 47.087C59.1668 46.7863 59.2511 46.548 59.4198 46.372C59.5885 46.1887 59.8048 46.0493 60.0688 45.954C60.3401 45.8587 60.6445 45.7963 60.9818 45.767C61.3265 45.7303 61.6711 45.7083 62.0158 45.701V44.865C62.0158 44.5937 61.9315 44.3847 61.7628 44.238C61.5941 44.0913 61.3815 44.018 61.1248 44.018C60.9341 44.018 60.7838 44.1133 60.6738 44.304C60.5638 44.4947 60.5088 44.711 60.5088 44.953L59.6068 44.788ZM61.9938 46.13C61.7518 46.064 61.5061 46.031 61.2568 46.031C61.1175 46.031 60.9781 46.0493 60.8388 46.086C60.6995 46.1153 60.5748 46.1667 60.4648 46.24C60.3548 46.3133 60.2631 46.4087 60.1898 46.526C60.1238 46.636 60.0908 46.7717 60.0908 46.933C60.0908 47.1823 60.1751 47.362 60.3438 47.472C60.5198 47.5747 60.7141 47.626 60.9268 47.626C61.1615 47.626 61.3741 47.5783 61.5648 47.483C61.7628 47.3877 61.9058 47.307 61.9938 47.241V46.13ZM65.8536 44.084L67.4596 43.842V44.425C67.6576 44.271 67.8849 44.1243 68.1416 43.985C68.3983 43.8457 68.6439 43.776 68.8786 43.776C69.0839 43.776 69.2783 43.8017 69.4616 43.853C69.6523 43.9043 69.8209 43.9887 69.9676 44.106C70.1143 44.2233 70.2316 44.381 70.3196 44.579C70.4076 44.777 70.4516 45.0227 70.4516 45.316V47.252C70.4516 47.494 70.5176 47.6553 70.6496 47.736C70.7816 47.8093 70.9723 47.868 71.2216 47.912V48.044C71.0089 48.0293 70.7816 48.0183 70.5396 48.011C70.2976 48.0037 70.0519 48 69.8026 48C69.6339 48 69.4689 48.0037 69.3076 48.011C69.1536 48.0183 69.0033 48.0293 68.8566 48.044V47.912C69.0913 47.868 69.2709 47.8093 69.3956 47.736C69.5276 47.6553 69.5936 47.494 69.5936 47.252V45.481C69.5936 45.107 69.5129 44.8173 69.3516 44.612C69.1976 44.4067 68.9446 44.304 68.5926 44.304C68.4679 44.304 68.3396 44.3223 68.2076 44.359C68.0756 44.3957 67.9546 44.447 67.8446 44.513C67.7346 44.5717 67.6429 44.6377 67.5696 44.711C67.4963 44.7843 67.4596 44.854 67.4596 44.92V47.252C67.4596 47.494 67.5293 47.6553 67.6686 47.736C67.8079 47.8093 68.0169 47.868 68.2956 47.912V48.044C68.0463 48.0293 67.7969 48.0183 67.5476 48.011C67.3056 48.0037 67.0599 48 66.8106 48C66.6419 48 66.4769 48.0037 66.3156 48.011C66.1616 48.0183 66.0003 48.0293 65.8316 48.044V47.912C66.0809 47.868 66.2716 47.8093 66.4036 47.736C66.5356 47.6553 66.6016 47.494 66.6016 47.252V44.7C66.6016 44.48 66.5246 44.3443 66.3706 44.293C66.2239 44.2417 66.0516 44.216 65.8536 44.216V44.084ZM74.3468 45.69C74.3468 46.0713 74.3945 46.3867 74.4898 46.636C74.5925 46.8853 74.7171 47.0833 74.8638 47.23C75.0178 47.3767 75.1791 47.4793 75.3478 47.538C75.5238 47.5967 75.6851 47.626 75.8318 47.626C76.1398 47.626 76.4185 47.5783 76.6678 47.483C76.9171 47.3803 77.1481 47.2227 77.3608 47.01L77.5478 47.186C77.2471 47.5087 76.9391 47.7543 76.6238 47.923C76.3085 48.0917 75.9308 48.176 75.4908 48.176C75.1755 48.176 74.8931 48.1137 74.6438 47.989C74.3945 47.8643 74.1818 47.6993 74.0058 47.494C73.8298 47.2887 73.6941 47.054 73.5988 46.79C73.5108 46.526 73.4668 46.2547 73.4668 45.976C73.4668 45.6973 73.5108 45.426 73.5988 45.162C73.6941 44.898 73.8298 44.6633 74.0058 44.458C74.1818 44.2527 74.3945 44.0877 74.6438 43.963C74.8931 43.8383 75.1755 43.776 75.4908 43.776C76.0701 43.776 76.5358 43.9337 76.8878 44.249C77.2398 44.5643 77.4561 45.0447 77.5368 45.69H74.3468ZM76.4918 45.36C76.4698 45.162 76.4405 44.986 76.4038 44.832C76.3671 44.6707 76.3085 44.5387 76.2278 44.436C76.1471 44.326 76.0408 44.2453 75.9088 44.194C75.7768 44.1353 75.6081 44.106 75.4028 44.106C75.2488 44.106 75.1058 44.1463 74.9738 44.227C74.8491 44.3003 74.7391 44.3993 74.6438 44.524C74.5558 44.6413 74.4861 44.777 74.4348 44.931C74.3908 45.0777 74.3688 45.2207 74.3688 45.36H76.4918ZM79.8395 44.084L81.4455 43.842V44.425C81.6435 44.271 81.8708 44.1243 82.1275 43.985C82.3842 43.8457 82.6298 43.776 82.8645 43.776C83.0698 43.776 83.2642 43.8017 83.4475 43.853C83.6382 43.9043 83.8068 43.9887 83.9535 44.106C84.1002 44.2233 84.2175 44.381 84.3055 44.579C84.3935 44.777 84.4375 45.0227 84.4375 45.316V47.252C84.4375 47.494 84.5035 47.6553 84.6355 47.736C84.7675 47.8093 84.9582 47.868 85.2075 47.912V48.044C84.9948 48.0293 84.7675 48.0183 84.5255 48.011C84.2835 48.0037 84.0378 48 83.7885 48C83.6198 48 83.4548 48.0037 83.2935 48.011C83.1395 48.0183 82.9892 48.0293 82.8425 48.044V47.912C83.0772 47.868 83.2568 47.8093 83.3815 47.736C83.5135 47.6553 83.5795 47.494 83.5795 47.252V45.481C83.5795 45.107 83.4988 44.8173 83.3375 44.612C83.1835 44.4067 82.9305 44.304 82.5785 44.304C82.4538 44.304 82.3255 44.3223 82.1935 44.359C82.0615 44.3957 81.9405 44.447 81.8305 44.513C81.7205 44.5717 81.6288 44.6377 81.5555 44.711C81.4822 44.7843 81.4455 44.854 81.4455 44.92V47.252C81.4455 47.494 81.5152 47.6553 81.6545 47.736C81.7938 47.8093 82.0028 47.868 82.2815 47.912V48.044C82.0322 48.0293 81.7828 48.0183 81.5335 48.011C81.2915 48.0037 81.0458 48 80.7965 48C80.6278 48 80.4628 48.0037 80.3015 48.011C80.1475 48.0183 79.9862 48.0293 79.8175 48.044V47.912C80.0668 47.868 80.2575 47.8093 80.3895 47.736C80.5215 47.6553 80.5875 47.494 80.5875 47.252V44.7C80.5875 44.48 80.5105 44.3443 80.3565 44.293C80.2098 44.2417 80.0375 44.216 79.8395 44.216V44.084ZM87.1337 44.293V44.117C87.3684 44.1097 87.57 44.051 87.7387 43.941C87.9074 43.831 88.054 43.6917 88.1787 43.523C88.3034 43.3543 88.406 43.1673 88.4867 42.962C88.5747 42.7567 88.6517 42.5587 88.7177 42.368H88.8717V43.963H90.3787V44.293H88.8717V46.856C88.8717 46.9513 88.8754 47.0467 88.8827 47.142C88.8974 47.23 88.9194 47.3107 88.9487 47.384C88.9854 47.4573 89.033 47.516 89.0917 47.56C89.1577 47.604 89.2457 47.626 89.3557 47.626C89.5757 47.626 89.759 47.5783 89.9057 47.483C90.0524 47.3877 90.199 47.2667 90.3457 47.12L90.4447 47.23C90.32 47.34 90.199 47.4537 90.0817 47.571C89.9644 47.681 89.8397 47.7837 89.7077 47.879C89.583 47.967 89.4437 48.0367 89.2897 48.088C89.143 48.1467 88.9817 48.176 88.8057 48.176C88.4977 48.176 88.2887 48.0843 88.1787 47.901C88.0687 47.7103 88.0137 47.4867 88.0137 47.23V44.293H87.1337ZM98.3364 47.252C98.3364 47.494 98.4024 47.6553 98.5344 47.736C98.6664 47.8093 98.8534 47.868 99.0954 47.912V48.044C98.8828 48.0293 98.6554 48.0183 98.4134 48.011C98.1788 48.0037 97.9368 48 97.6874 48C97.5188 48 97.3538 48.0037 97.1924 48.011C97.0311 48.0183 96.8588 48.0293 96.6754 48.044V47.912C96.9394 47.868 97.1374 47.8093 97.2694 47.736C97.4088 47.6553 97.4784 47.494 97.4784 47.252V45.008C97.4784 44.832 97.4638 44.6927 97.4344 44.59C97.4124 44.4873 97.3721 44.4103 97.3134 44.359C97.2548 44.3003 97.1778 44.26 97.0824 44.238C96.9871 44.216 96.8698 44.2013 96.7304 44.194V44.062L98.3364 43.842V44.392C98.5711 44.2233 98.8021 44.0803 99.0294 43.963C99.2641 43.8383 99.5354 43.776 99.8434 43.776C100.1 43.776 100.324 43.8273 100.514 43.93C100.712 44.0327 100.892 44.183 101.053 44.381C101.149 44.315 101.255 44.249 101.372 44.183C101.49 44.1097 101.611 44.0437 101.735 43.985C101.86 43.919 101.988 43.8677 102.12 43.831C102.252 43.7943 102.381 43.776 102.505 43.776C102.967 43.776 103.33 43.9043 103.594 44.161C103.858 44.4103 103.99 44.788 103.99 45.294V47.252C103.99 47.494 104.056 47.6553 104.188 47.736C104.328 47.8093 104.529 47.868 104.793 47.912V48.044C104.559 48.0293 104.32 48.0183 104.078 48.011C103.836 48.0037 103.591 48 103.341 48C103.173 48 103.011 48.0037 102.857 48.011C102.703 48.0183 102.56 48.0293 102.428 48.044V47.912C102.641 47.868 102.81 47.8093 102.934 47.736C103.066 47.6553 103.132 47.494 103.132 47.252V45.404C103.132 45.0447 103.041 44.777 102.857 44.601C102.681 44.4177 102.476 44.326 102.241 44.326C101.794 44.326 101.435 44.4433 101.163 44.678V47.252C101.163 47.494 101.229 47.6553 101.361 47.736C101.493 47.8093 101.68 47.868 101.922 47.912V48.044C101.71 48.0293 101.482 48.0183 101.24 48.011C101.006 48.0037 100.764 48 100.514 48C100.346 48 100.184 48.0037 100.03 48.011C99.8764 48.0183 99.7334 48.0293 99.6014 48.044V47.912C99.8141 47.868 99.9828 47.8093 100.107 47.736C100.239 47.6553 100.305 47.494 100.305 47.252V45.404C100.305 45.0447 100.25 44.766 100.14 44.568C100.03 44.3627 99.7884 44.26 99.4144 44.26C99.3044 44.26 99.2054 44.271 99.1174 44.293C99.0368 44.3077 98.9561 44.337 98.8754 44.381C98.7948 44.425 98.7104 44.4837 98.6224 44.557C98.5418 44.623 98.4464 44.7073 98.3364 44.81V47.252ZM107.349 44.788C107.408 44.5607 107.488 44.381 107.591 44.249C107.701 44.1097 107.826 44.007 107.965 43.941C108.104 43.8677 108.262 43.8237 108.438 43.809C108.614 43.787 108.801 43.776 108.999 43.776C109.19 43.776 109.377 43.798 109.56 43.842C109.751 43.8787 109.919 43.9447 110.066 44.04C110.22 44.1353 110.341 44.2637 110.429 44.425C110.524 44.579 110.572 44.7697 110.572 44.997V47.032C110.572 47.1713 110.609 47.296 110.682 47.406C110.755 47.5087 110.869 47.56 111.023 47.56C111.17 47.56 111.298 47.5197 111.408 47.439C111.525 47.351 111.635 47.2667 111.738 47.186L111.848 47.307C111.775 47.3803 111.687 47.4683 111.584 47.571C111.489 47.6663 111.386 47.7617 111.276 47.857C111.166 47.945 111.052 48.0183 110.935 48.077C110.825 48.143 110.715 48.176 110.605 48.176C110.532 48.176 110.455 48.1503 110.374 48.099C110.293 48.055 110.213 48 110.132 47.934C110.059 47.868 109.989 47.7983 109.923 47.725C109.857 47.6517 109.798 47.5893 109.747 47.538C109.512 47.6993 109.248 47.846 108.955 47.978C108.662 48.11 108.376 48.176 108.097 48.176C107.943 48.176 107.793 48.1503 107.646 48.099C107.507 48.0477 107.382 47.9743 107.272 47.879C107.162 47.7837 107.074 47.67 107.008 47.538C106.942 47.406 106.909 47.2557 106.909 47.087C106.909 46.7863 106.993 46.548 107.162 46.372C107.331 46.1887 107.547 46.0493 107.811 45.954C108.082 45.8587 108.387 45.7963 108.724 45.767C109.069 45.7303 109.413 45.7083 109.758 45.701V44.865C109.758 44.5937 109.674 44.3847 109.505 44.238C109.336 44.0913 109.124 44.018 108.867 44.018C108.676 44.018 108.526 44.1133 108.416 44.304C108.306 44.4947 108.251 44.711 108.251 44.953L107.349 44.788ZM109.736 46.13C109.494 46.064 109.248 46.031 108.999 46.031C108.86 46.031 108.72 46.0493 108.581 46.086C108.442 46.1153 108.317 46.1667 108.207 46.24C108.097 46.3133 108.005 46.4087 107.932 46.526C107.866 46.636 107.833 46.7717 107.833 46.933C107.833 47.1823 107.917 47.362 108.086 47.472C108.262 47.5747 108.456 47.626 108.669 47.626C108.904 47.626 109.116 47.5783 109.307 47.483C109.505 47.3877 109.648 47.307 109.736 47.241V46.13ZM113.497 47.912C113.695 47.89 113.845 47.8533 113.948 47.802C114.058 47.7507 114.135 47.6773 114.179 47.582C114.23 47.4867 114.259 47.3657 114.267 47.219C114.281 47.065 114.289 46.878 114.289 46.658V41.554C114.289 41.3413 114.27 41.169 114.234 41.037C114.204 40.8977 114.157 40.7913 114.091 40.718C114.025 40.6373 113.937 40.5823 113.827 40.553C113.724 40.5237 113.603 40.5053 113.464 40.498V40.366L115.147 40.168V46.075C115.227 46.0017 115.356 45.899 115.532 45.767C115.715 45.6277 115.898 45.481 116.082 45.327C116.265 45.1657 116.426 45.008 116.566 44.854C116.705 44.6927 116.775 44.5497 116.775 44.425C116.775 44.3077 116.745 44.227 116.687 44.183C116.635 44.1317 116.555 44.0987 116.445 44.084V43.952H118.59V44.084C118.37 44.1207 118.164 44.1867 117.974 44.282C117.783 44.37 117.6 44.4763 117.424 44.601C117.248 44.7183 117.075 44.8467 116.907 44.986C116.745 45.1253 116.584 45.261 116.423 45.393C116.591 45.591 116.771 45.8257 116.962 46.097C117.152 46.3683 117.358 46.6323 117.578 46.889C117.798 47.1457 118.032 47.373 118.282 47.571C118.538 47.7617 118.81 47.8753 119.096 47.912V48.044C118.876 48.0293 118.652 48.0183 118.425 48.011C118.205 48.0037 117.981 48 117.754 48C117.519 48 117.288 48.0037 117.061 48.011C116.833 48.0183 116.602 48.0293 116.368 48.044V47.912C116.492 47.9193 116.621 47.8937 116.753 47.835C116.885 47.7763 116.951 47.67 116.951 47.516C116.951 47.4207 116.903 47.2997 116.808 47.153C116.72 46.999 116.613 46.845 116.489 46.691C116.371 46.5297 116.25 46.3757 116.126 46.229C116.001 46.075 115.909 45.954 115.851 45.866L115.147 46.394V47.208C115.147 47.4427 115.198 47.6113 115.301 47.714C115.403 47.8093 115.609 47.8753 115.917 47.912V48.044C115.675 48.0293 115.433 48.0183 115.191 48.011C114.956 48.0037 114.718 48 114.476 48C114.307 48 114.142 48.0037 113.981 48.011C113.827 48.0183 113.665 48.0293 113.497 48.044V47.912ZM122.089 45.69C122.089 46.0713 122.137 46.3867 122.232 46.636C122.335 46.8853 122.459 47.0833 122.606 47.23C122.76 47.3767 122.921 47.4793 123.09 47.538C123.266 47.5967 123.427 47.626 123.574 47.626C123.882 47.626 124.161 47.5783 124.41 47.483C124.659 47.3803 124.89 47.2227 125.103 47.01L125.29 47.186C124.989 47.5087 124.681 47.7543 124.366 47.923C124.051 48.0917 123.673 48.176 123.233 48.176C122.918 48.176 122.635 48.1137 122.386 47.989C122.137 47.8643 121.924 47.6993 121.748 47.494C121.572 47.2887 121.436 47.054 121.341 46.79C121.253 46.526 121.209 46.2547 121.209 45.976C121.209 45.6973 121.253 45.426 121.341 45.162C121.436 44.898 121.572 44.6633 121.748 44.458C121.924 44.2527 122.137 44.0877 122.386 43.963C122.635 43.8383 122.918 43.776 123.233 43.776C123.812 43.776 124.278 43.9337 124.63 44.249C124.982 44.5643 125.198 45.0447 125.279 45.69H122.089ZM124.234 45.36C124.212 45.162 124.183 44.986 124.146 44.832C124.109 44.6707 124.051 44.5387 123.97 44.436C123.889 44.326 123.783 44.2453 123.651 44.194C123.519 44.1353 123.35 44.106 123.145 44.106C122.991 44.106 122.848 44.1463 122.716 44.227C122.591 44.3003 122.481 44.3993 122.386 44.524C122.298 44.6413 122.228 44.777 122.177 44.931C122.133 45.0777 122.111 45.2207 122.111 45.36H124.234ZM133.489 46.658C133.489 46.966 133.566 47.2043 133.72 47.373C133.881 47.5417 134.116 47.626 134.424 47.626C134.658 47.626 134.889 47.571 135.117 47.461C135.351 47.3437 135.524 47.2227 135.634 47.098V44.777C135.634 44.6817 135.626 44.5937 135.612 44.513C135.597 44.4323 135.56 44.3627 135.502 44.304C135.443 44.238 135.355 44.183 135.238 44.139C135.12 44.0877 134.963 44.0473 134.765 44.018V43.897L136.492 43.776V47.153C136.492 47.4317 136.561 47.6187 136.701 47.714C136.847 47.802 137.049 47.8533 137.306 47.868V47.978C137.027 47.9927 136.745 48.0037 136.459 48.011C136.18 48.0183 135.905 48.0293 135.634 48.044V47.472C135.377 47.6627 135.106 47.8277 134.82 47.967C134.541 48.1063 134.237 48.176 133.907 48.176C133.555 48.176 133.254 48.077 133.005 47.879C132.755 47.681 132.631 47.3767 132.631 46.966V44.689C132.631 44.469 132.568 44.3187 132.444 44.238C132.326 44.1573 132.114 44.0987 131.806 44.062V43.919L133.489 43.776V46.658ZM140.948 47.021C141.029 47.241 141.194 47.4353 141.443 47.604C141.7 47.7653 141.989 47.846 142.312 47.846C142.767 47.846 143.104 47.6737 143.324 47.329C143.544 46.9843 143.654 46.548 143.654 46.02C143.654 45.8 143.625 45.58 143.566 45.36C143.515 45.14 143.434 44.942 143.324 44.766C143.214 44.59 143.075 44.447 142.906 44.337C142.737 44.227 142.539 44.172 142.312 44.172C141.982 44.172 141.692 44.2343 141.443 44.359C141.194 44.4837 141.029 44.645 140.948 44.843V47.021ZM140.948 49.661C140.948 49.837 140.959 49.98 140.981 50.09C141.003 50.2 141.058 50.288 141.146 50.354C141.241 50.42 141.377 50.4677 141.553 50.497C141.736 50.5263 141.986 50.5447 142.301 50.552V50.684C142.03 50.6693 141.758 50.6583 141.487 50.651C141.216 50.6437 140.944 50.64 140.673 50.64C140.424 50.64 140.174 50.6437 139.925 50.651C139.683 50.6583 139.437 50.6693 139.188 50.684V50.552C139.342 50.5373 139.474 50.5153 139.584 50.486C139.694 50.464 139.786 50.4237 139.859 50.365C139.94 50.3137 139.998 50.2367 140.035 50.134C140.072 50.0387 140.09 49.9067 140.09 49.738V44.942C140.09 44.634 140.028 44.4287 139.903 44.326C139.778 44.2233 139.566 44.1573 139.265 44.128V44.007L140.948 43.842V44.304C141.212 44.1133 141.458 43.9777 141.685 43.897C141.92 43.8163 142.198 43.776 142.521 43.776C142.844 43.776 143.133 43.831 143.39 43.941C143.654 44.051 143.874 44.205 144.05 44.403C144.233 44.601 144.373 44.8357 144.468 45.107C144.571 45.3783 144.622 45.6753 144.622 45.998C144.622 46.3353 144.556 46.6397 144.424 46.911C144.299 47.175 144.127 47.4023 143.907 47.593C143.694 47.7763 143.441 47.9193 143.148 48.022C142.862 48.1247 142.561 48.176 142.246 48.176C142.019 48.176 141.795 48.1467 141.575 48.088C141.355 48.0367 141.146 47.9487 140.948 47.824V49.661Z" fill="white"/>
<defs>
<filter id="filter0_d_155_35" x="0" y="0" width="171.356" height="84" filterUnits="userSpaceOnUse" color-interpolation-filters="sRGB">
<feFlood flood-opacity="0" result="BackgroundImageFix"/>
<feColorMatrix in="SourceAlpha" type="matrix" values="0 0 0 0 0 0 0 0 0 0 0 0 0 0 0 0 0 0 127 0" result="hardAlpha"/>
<feOffset dy="4"/>
<feGaussianBlur stdDeviation="2"/>
<feComposite in2="hardAlpha" operator="out"/>
<feColorMatrix type="matrix" values="0 0 0 0 0 0 0 0 0 0 0 0 0 0 0 0 0 0 0.25 0"/>
<feBlend mode="normal" in2="BackgroundImageFix" result="effect1_dropShadow_155_35"/>
<feBlend mode="normal" in="SourceGraphic" in2="effect1_dropShadow_155_35" result="shape"/>
</filter>
<linearGradient id="paint0_linear_155_35" x1="4" y1="38.6229" x2="167.208" y2="43.5419" gradientUnits="userSpaceOnUse">
<stop offset="0.227429" stop-color="#E3207F" stop-opacity="0.84"/>
<stop offset="1" stop-color="#2D0226" stop-opacity="0.45"/>
</linearGradient>
</defs>
</svg>
